/* XPM */
static char *bc3b50e62641479ea86e1e9206f4f09dKaAcc0qNiKbQ87uJ[] = {
/* columns rows colors chars-per-pixel */
"64 64 5 1 ",
"  c #212120",
". c gray26",
"X c gray33",
"o c #D26B20",
"O c white",
/* pixels */
"oooooooooooooooooooooooooooo....oooooooooooooooooooooooooooooooo",
"oooooooooooooooooooooooooooo....oooooooooooooooooooooooooooooooo",
"oooooooooooooooooooooooooooo....oooooooooooooooooooooooooooooooo",
"oooooooooooooooooooooooooooo....oooooooooooooooooooooooooooooooo",
"oooooooooooooooooooooooooooo....oooooooooooooooooooooooooooooooo",
"oooooooooooooooooooooooooooo....oooooooooooooooooooooooooooooooo",
"oooooooooooooooooooooooooooo....oooooooooooooooooooooooooooooooo",
"oooooooooooooooooooooooooooo....oooooooooooooooooooooooooooooooo",
"oooooooooooooooooooooooooooo....oooooooooooooooooooooooooooooooo",
"oooooooooooooooooooooooooooo....oooooooooooooooooooooooooooooooo",
"oooooooooooooooooooooooooooo....oooooooooooooooooooooooooooooooo",
"oooooooooooooooooooooooooooo....oooooooooooooooooooooooooooooooo",
"........                                                ........",
"........                                                ........",
"......  OOOOOOOOOOOOOOOOOOOOOOOOOOOOOOOOOOOOOOOOOOOOOOOO  ......",
"......  OOOOOOOOOOOOOOOOOOOOOOOOOOOOOOOOOOOOOOOOOOOOOOOO  ......",
"oooooo  OOOOOOOOOOOOOOOOOOOOOOOOOOOOOOOOOOOOOOOOOOOOOOOO  oooooo",
"oooooo  OOOOOOOOOOOOOOOOOOOOOOOOOOOOOOOOOOOOOOOOOOOOOOOO  oooooo",
"oooooo  OOOOOOOOOOOOOOOOOOOOOOOOOOOOOOOOOOOOOOOOOOOOOOOO  oooooo",
"oooooo  OOOOOOOOOOOOOOOOOOOOOOOOOOOOOOOOOOOOOOOOOOOOOOOO  oooooo",
"oooooo  OOOOOOOOOOOOOOOOOOOOOOOOOOOOOOOOOOOOOOOOOOOOOOOO  oooooo",
"oooooo  OOOOOOOOOOOOOOOOOOOOOOOOOOOOOOOOOOOOOOOOOOOOOOOO  oooooo",
"oooooo  OOOOOOOOOOOOOOOOOOOOOOOOOOOOOOOOOOOOOOOOOOOOOOOO  oooooo",
"oooooo  OOOOOOOOOOOOOOOOOOOOOOOOOOOOOOOOOOOOOOOOOOOOOOOO  oooooo",
"oooooo  OOOOOOOOOOOOOOOOOOOOOOOOOOOOOOOOOOOOOOOOOOOOOOOO  oooooo",
"oooooo  OOOOOOOOOOOOOOOOOOOOOOOOOOOOOOOOOOOOOOOOOOOOOOOO  oooooo",
"oooooo  OOOOOOOOOOOOOOOOOOOOOOOOOOOOOOOOOOOOOOOOOOOOOOOO  oooooo",
"oooooo  OOOOOOOOOOOOOOOOOOOOOOOOOOOOOOOOOOOOOOOOOOOOOOOO  oooooo",
"......  OOOOOOOOOOOOOOOOOOOOOOOOOOOOOOOOOOOOOOOOOOOOOOOO  ......",
"......  OOOOOOOOOOOOOOOOOOOOOOOOOOOOOOOOOOOOOOOOOOOOOOOO  ......",
"......  OOOOOOOOOOOOOOOOOOOOOOOOOOOOOOOOOOOOOOOOOOOOOOOO  ......",
"......  OOOOOOOOOOOOOOOOOOOOOOOOOOOOOOOOOOOOOOOOOOOOOOOO  ......",
"oooooo  OOOOOOOOOOOOOOOOOOOOOOOOOOOOOOOOOOOOOOOOOOOOOOOO  oo....",
"oooooo  OOOOOOOOOOOOOOOOOOOOOOOOOOOOOOOOOOOOOOOOOOOOOOOO  oo....",
"oooooo  OOOOOOOOOOOOOOOOOOOOOOOOOOOOOOOOOOOOOOOOOOOOOOOO  oo....",
"oooooo  OOOOOOOOOOOOOOOOOOOOOOOOOOOOOOOOOOOOOOOOOOOOOOOO  oo....",
"oooooo  OOOOOOOOOOOOOOOOOOOOOOOOOOOOOOOOOOOOOOOOOOOOOOOO  oo....",
"oooooo  OOOOOOOOOOOOOOOOOOOOOOOOOOOOOOOOOOOOOOOOOOOOOOOO  oo....",
"oooooo  OOOOOOOOOOOOOOOOOOOOOOOOOOOOOOOOOOOOOOOOOOOOOOOO  oo....",
"oooooo  OOOOOOOOOOOOOOOOOOOOOOOOOOOOOOOOOOOOOOOOOOOOOOOO  oo....",
"oooooo  OOOOOOOOOOOOOOOOOOOOOOOOOOOOOOOOOOOOOOOOOOOOOOOO  oo....",
"oooooo  OOOOOOOOOOOOOOOOOOOOOOOOOOOOOOOOOOOOOOOOOOOOOOOO  oo....",
"oooooo  OOOOOOOOOOOOOOOOOOOOOOOOOOOOOOOOOOOOOOOOOOOOOOOO  oo....",
"oooooo  OOOOOOOOOOOOOOOOOOOOOOOOOOOOOOOOOOOOOOOOOOOOOOOO  oo....",
"......  OOOOOOOOOOOOOOOOOOOOOOOOOOOOOOOOOOOOOOOOOOOOOOOO  ......",
"......  OOOOOOOOOOOOOOOOOOOOOOOOOOOOOOOOOOOOOOOOOOOOOOOO  ......",
"......  OOOOOOOOOOOOOOOOOOOOOOOOOOOOOOOOOOOOOOOOOOOOOOOO  ......",
"......XX                                                XX......",
"ooooooXX                                                XXoooooo",
"ooooooooXXXXXXXXXXXXXXXXXXXXXXXXXXXXXXXXXXXXXX   OOOO   XXoooooo",
"ooooooooXXXXXXXXXXXXXXXXXXXXXXXXXXXXXXXXXXXXXX   OOOO   XXoooooo",
"oooooooooooo....oooooooooooooooooooooooooooooo   OOOO   XXoooooo",
"oooooooooooo....oooooooooooooooooooooooooooooo   OOOO   XXoooooo",
"oooooooooooo....oooooooooooooooooooooooooooooo   OOOO   XXoooooo",
"oooooooooooo....ooooooooooooooooooooooooooooooXXX         oooooo",
"oooooooooooo....ooooooooooooooooooooooooooooooXXX         oooooo",
"oooooooooooo....oooooooooooooooooooooooooooooooo.  OOOOO  oooooo",
"oooooooooooo....oooooooooooooooooooooooooooooooo.  OOOOO  oooooo",
"oooooooooooo....oooooooooooooooooooooooooooooooo.XX       oooooo",
"oooooooooooo....oooooooooooooooooooooooooooooooo.XX       oooooo",
".................................................XX       ......",
"...................................................XXXXXXX......",
"...................................................XXXXXXX......",
"................................................................"
};
