/* XPM */
static char *_8138966ff364435d481cc6b007700e2whpqbUcD9q3LuvwU[] = {
/* columns rows colors chars-per-pixel */
"64 64 43 1 ",
"  c #26316C",
". c #02577B",
"X c #78726B",
"o c #80623D",
"O c #B38C5B",
"+ c #C49356",
"@ c #204799",
"# c #187882",
"$ c #136798",
"% c #136898",
"& c #3F51B5",
"* c #2763A3",
"= c #1F79D9",
"- c #2B44FF",
"; c #6B7BFE",
": c #769698",
"> c #769699",
", c #4D89A2",
"< c #0392CF",
"1 c #268ED4",
"2 c #26B7D4",
"3 c #0DAFFA",
"4 c #1FADFF",
"5 c #20A3E0",
"6 c #4FB2DC",
"7 c #4FB3DC",
"8 c #29CAD9",
"9 c #49D6C6",
"0 c #4AF0DD",
"q c #69D9E3",
"w c #69DAE3",
"e c #69DAE4",
"r c #62C4FE",
"t c #CFAE87",
"y c #83C9E6",
"u c #84C9E6",
"i c #90D6FD",
"p c #8FFBFF",
"a c #AFFBFE",
"s c #B0FCFE",
"d c #B0FCFF",
"f c #C4FAFF",
"g c #FFFFFE",
/* pixels */
"oooooooooooooooooooooooooooooooooooooooooooooooooooooooooooooooo",
"oooooooooooooooooooooooooooooooooooooooooooooooooooooooooooooooo",
"oooooooooooooooooooooooooooooooooooooooooooooooooooooooooooooooo",
"oooOOOOOOOOOOOOO+++OOOOOOOOoooOOOOO++++++++OOOtttttOOOOOOOOOOOoo",
"oooOOOOOOOOOOOOO+++OOOOOOOOoooOOOOO++++++++OOOtttttOOOOOOOOOOOoo",
"oooOOXXXttttttOOOOO+++++OOOoooOOOOOtttttttttttttttttttttXXXOOOoo",
"oooOOXXXttttttOOOOO+++++OOOoooOOOOOtttttttttttttttttttttXXXOOOoo",
"oooOOXXXttttttOOOOO+++++OOOoooOOOOOtttttttttttttttttttttXXXOOOoo",
"oooOOOOOOOOOOOttttttttOOOOOoooOOOOOOOOOO+++++++++++OOOOOOOOOOOoo",
"oooOOOOOOOOOOOttttttttOOOOOoooOOOOOOOOOO+++++++++++OOOOOOOOOOOoo",
"oooOOOOOOOOOOOttttttttOOOOOoooOOOOOOOOOO+++++++++++OOOOOOOOOOOoo",
"oooooooooooooooooooooooooooooooooooooooooooooooooooooooooooooooo",
"oooooooooooooooooooooooooooooooooooooooooooooooooooooooooooooooo",
"oooOOOOOOOOOOO++OOOOOOOOOOOttttttttOOOOOoooOOOOOOOOOOOOOOOOOOOoo",
"oooOOOOOOOOOOO++OOOOOOOOOOOttttttttOOOOOoooOOOOOOOOOOOOOOOOOOOoo",
"oooOOOOOOOOOOO++OOOOOOOOOOOttttttttOOOOOoooOOOOOOOOOOOOOOOOOOOoo",
"oooOOXXX++++++tttttttttttttOOOOOOOOOOOOOoooOOOOO++++++ttXXXOOOoo",
"oooOOXXX++++++tttttttttttttOOOOOOOOOOOOOoooOOOOO++++++ttXXXOOOoo",
"oooOOXXX++++++tttttttttttttOOOOOOOOOOOOOoooOOOOO++++++ttXXXOOOoo",
"oooOO+++OOOOOOOOOOOOOOOOOOOOOOOOOOOOOOOOooo+++++OOOOOOOOOOOOOOoo",
"oooOO+++OOOOOOOOOOOOOOO&&&&&&&&&&&&&&&&&&&&+++++OOOOOOOOOOOOOOoo",
"oooOO+++OOOOOOOOOOOOOO&95558999ppp0$r48r7<4&++++OOOOOOOOOOOOOOoo",
"ooooooooooooooooooooo&92885599agppp8$r4847rr&ooooooooooooooooooo",
"oooooooooooooooooooo&&<229899aggppp08$4r44i&&&oooooooooooooooooo",
"oooOOOOOOOOOOOOOOOO&ww&<2299sggspppp08$545&&28&OOOOOOOOOOOOOOOoo",
"oooOOOOOOOOOOOOOOO&<88w&<99psgsppppp0p8%=&&2288&OOOOOOOOOOOOOOoo",
"oooOOOOOOOOOOOOOO&<<888w&<&pggppppp0ppp8&&2288<@&OOOOOOOOOOOOOoo",
"oooOOXXXOOO+++OO&88<<888w&0pppssssssssp0&8222888@&++++++XXXOOOoo",
"oooOOXXXOOO+++OO&&&&@&&::ff:ffggggggggf:ff:&&    &++++++XXXOOOoo",
"oooOOXXXOOO+++OO&7<<@@===&<888wweeeeee88&<<@@@<<<&++++++XXXOOOoo",
"oooOO++++++OOOOO&3y===@==&<888888888gw88&<<-@@<<8&OOOOOOOOOOOOoo",
"oooOO++++++OOOOOO&3y@=====&<8288888gw8e&7<--@<<8&OOOOOOOOOOOOOoo",
"oooooooooooooooooo&3<==2,=&<<28888e88g8&7<-@<w8&oooooooooooooooo",
"ooooooooooooooooooo&3<==11.&<<28888888&7<-;7<8&ooooooooooooooooo",
"oooooooooooooooooooo&37==1=&#<28882888&7<;@<8&oooooooooooooooooo",
"oooOOOOOOOOtttttOOOOO&33=1=@&<<282288&7<-;<8&OOOoooOOOOOOOOOOOoo",
"oooOOOOOOOOtttttOOOOOO&u<<@=&#<282888&<--w8&OOOOoooOOOOOOOOOOOoo",
"oooOOOOOOOOtttttOOOOOOO&7<*=@&822288&7-@<8&OOOOOoooOOOOOOOOOOOoo",
"oooOOXXXtttOOOOOOOOOOOtt&3u*2&#<2288&<-<8&ttttOOoooOOOOOXXXOOOoo",
"oooOOXXXtttOOOOOOOOOOOttt&3<11&<288&<-<e&tttttOOoooOOOOOXXXOOOoo",
"oooOOOOOOOOOOOOOOOOOOOOOOO&771&#288&<-<&OOOOOOOOoooOOOOOOOOOOOoo",
"oooOOOOOOOOOOOOOOOOOOOOOOOO&37.&28&<<<&OOOOOOOOOoooOOOOOOOOOOOoo",
"oooOOOOOOOOOOOOOOOOOOOOOOOOO&7<&#8&<<&OOOOOOOOOOoooOOOOOOOOOOOoo",
"ooooooooooooooooooooooooooooo&7<8#<<&ooooooooooooooooooooooooooo",
"oooooooooooooooooooooooooooooo&7=5<&oooooooooooooooooooooooooooo",
"ooooooooooooooooooooooooooooooo&&&&ooooooooooooooooooooooooooooo",
"oooOOOOOOOOOOOOOOOOOOOOOttttttttOOOoooOOOOOOOO+++++++++++++OOOoo",
"oooOOOOOOOOOOOOOOOOOOOOOttttttttOOOoooOOOOOOOO+++++++++++++OOOoo",
"oooOOOOOOOOOOOOOOOOOOOOOttttttttOOOoooOOOOOOOO+++++++++++++OOOoo",
"oooOOXXXOOOOOOOOttttttttOOOOOOOOOOOoooOOOOOtttttttttttOOXXXOOOoo",
"oooOOXXXOOOOOOOOttttttttOOOOOOOOOOOoooOOOOOtttttttttttOOXXXOOOoo",
"oooOOOOOttttttttttttttttttttttOOOOOoooOOOOOOOOOOtttttttttttOOOoo",
"oooOOOOOttttttttttttttttttttttOOOOOoooOOOOOOOOOOtttttttttttOOOoo",
"oooOOOOOttttttttttttttttttttttOOOOOoooOOOOOOOOOOtttttttttttOOOoo",
"oooooooooooooooooooooooooooooooooooooooooooooooooooooooooooooooo",
"oooooooooooooooooooooooooooooooooooooooooooooooooooooooooooooooo",
"oooooooooooooooooooooooooooooooooooooooooooooooooooooooooooooooo",
"oooOOXXXtttOOOOOOOOoooOOOOOOOOOO+++OOOttttttttttttttttttXXXOOOoo",
"oooOOXXXtttOOOOOOOOoooOOOOOOOOOO+++OOOttttttttttttttttttXXXOOOoo",
"oooOOOOOOOOtttttOOOoooOOOOOOOO++tttttttttttttttttttOOOOOOOOOOOoo",
"oooOOOOOOOOtttttOOOoooOOOOOOOO++tttttttttttttttttttOOOOOOOOOOOoo",
"oooOOOOOOOOtttttOOOoooOOOOOOOO++tttttttttttttttttttOOOOOOOOOOOoo",
"oooooooooooooooooooooooooooooooooooooooooooooooooooooooooooooooo",
"oooooooooooooooooooooooooooooooooooooooooooooooooooooooooooooooo"
};
