/* XPM */
static char *_73699efb05a400eb2b7b388c85ae9ecu0VOE6tZhN4an6ly[] = {
/* columns rows colors chars-per-pixel */
"64 64 9 1 ",
"  c #78726B",
". c #80623D",
"X c #FF5722",
"o c #F44336",
"O c #FFEB3B",
"+ c #B38C5B",
"@ c #C49356",
"# c #CFAE87",
"$ c #E6EE9C",
/* pixels */
"................................................................",
"................................................................",
"................................................................",
"..+++++++++++#####+++@@@@@@@@+++++...++++++++@@@+++++++++++++...",
"..+++++++++++#####+++@@@@@@@@+++++...++++++++@@@+++++++++++++...",
"..+++   #####################+++++...+++@@@@@+++++######   ++...",
"..+++   #####################+++++...+++@@@@@+++++######   ++...",
"..+++   #####################+++++...+++@@@@@+++++######   ++...",
"..+++++++++++@@@@@@@@@@@++++++++++...+++++########+++++++++++...",
"..+++++++++++@@@@@@@@@@@++++++++++...+++++########+++++++++++...",
"..+++++++++++@@@@@@@@@@@++++++++++...+++++########+++++++++++...",
"................................................................",
"................................................................",
"..+++++++++++++++++++...+++++########+++++++++++@@+++++++++++...",
"..+++++++++++++++++++...+++++########+++++++++++@@+++++++++++...",
"..+++++++++++++++++++...+++++########+++++++++++@@+++++++++++...",
"..+++   ##@@@@@@+++++...+++++++++++++#############@@@@@@   ++...",
"..+++   ##@@@@@@+++++...+++++++++++++#############@@@@@@   ++...",
"..+++   ##@@@@@@+++++...+++++++++++++#############@@@@@@   ++...",
"..++++++++++++++@@@@@...+++++++++++++oo+++++++++++++++++@@@++...",
"..++++++++++++++@@@@@...+++++++++++++oo+++++++++++++++++@@@++...",
"..++++++++++++++@@@@@...++++++++++oooXXooo++++++++++++++@@@++...",
"..................................oooXXooo......................",
"........................oo......ooXXXXXooo.....ooo..............",
"..+++++++++++++++++++@@@oo@@@@@@ooXXXXXooo...++ooo+++++++++++...",
"..+++++++++++++++++++oooXXooo@@@ooXXXoo+++...ooXXXooo++++++++...",
"..+++++++++++++++++++oooXXooo@@@ooXXXoo+++...ooXXXooo++++++++...",
"..+++   @@@@@@@@@@@@@oooXXooo###ooXXXoo+++...ooXXXooo+++   ++...",
"..+++   @@@@@@@@@@@@@oooXXooo###ooXXXoo+++...ooXXXXXXoo+   ++...",
"..+++   @@@@@@@@@@@@@oooXXooo###ooXXXoo+++...ooXXXXXXoo+   ++...",
"..+++oooooooo+++++oooXXXXXooo@@@ooXXXoo+++...++oooXXXoo@@@@++...",
"..+++oooooooo+++++oooXXXXXooo@@@ooXXXoo+++...++oooXXXoo@@@@++...",
".....oooXXXXXooo..oooXXXoo......ooXXXXXooo...ooXXXXXXoo.........",
".....oooXXXXXooo..oooXXXoo......ooXXXXXooo...ooXXXXXXoo.........",
"........ooXXXooo..oooXXXoo........oooXXXXXoooXXXXXooo...........",
"..++++++ooXXXooo++oooXXXoo++++++++oooXXXXXoooXXXXXooo++++++++...",
"..++++++ooXXXooo++oooXXXoo++++++++oooXXXXXXXXXXooo###++++++++...",
"..++++++ooXXXooo++oooXXXoo++++++++oooXXXXXXXXXXooo###++++++++...",
"..+++   ooXXXXXXoooooXXXoo######ooXXXXXXXXXXXXXooo+++###   ++...",
"..+++   ooXXXXXXoooooXXXoo######ooXXXXXXXXXXXXXooo+++###   ++...",
"..++++++ooXXXXXXXXXXXXXXXXooooooooXXXXXOOOXXXXXooo+++++++++++...",
"..++++++ooXXXXXXXXXXXXXXXXooooooooXXXXXOOOXXXXXooo+++++++++++...",
"..++++++ooXXXXXXXXXXXXXXXXooooooooXXXXXOOOXXXXXooo+++++++++++...",
"..........oooXXXOOXXXXXXXXXXXXXXXXXXXXXOOOXXXXXXXXooo...........",
"..........oooXXXOOXXXXXXXXXXXXXXXXXXXXXOOOXXXXXXXXooo...........",
"..........oooXXXOOOOOOOOXXOOOXXXOOXXXOOOOOXXXXXXXXXXXoo.........",
"..+++@@@@@oooXXXOOOOOOOOXXOOOXXXOOXXXOOOOOXXXXXXXXXXXoo++++++...",
"..+++@@@ooXXXXXXXXOOOOOOOOOOOOOOOOOOOOOOOOOOOXXXXXXXXoo++++++...",
"..+++@@@ooXXXXXXXXOOOOOOOOOOOOOOOOOOOOOOOOOOOXXXXXXXXoo++++++...",
"..+++   ooXXXXXXXXOOOOOOOOOOOOOOOOOOOOOOOOOOOXXXXXXXXoo+   ++...",
"..+++   ooXXXXXXXXOOOOOOOOOOOOOOOOOOOOOOOOOOOXXXXXXXXoo+   ++...",
"..+++###ooXXXXXXXXXXXOOO$$$$$$$$$$OOOOOOOOOOOXXXXXXXXoo#+++++...",
"..+++###ooXXXXXXXXXXXOOO$$$$$$$$$$OOOOOOOOOOOXXXXXXXXoo#+++++...",
"..+++###ooXXXXXXXXOOOOOO$$$$$$$$$$$$$OOOOOOOOXXXXXXXXoo#+++++...",
"........ooXXXXXXXXOOOOOO$$$$$$$$$$$$$OOOOOOOOXXXXXXXXoo.........",
"........ooXXXXXXXXOOOOOO$$$$$$$$$$$$$OOOOOOOOXXXXXXXXoo.........",
"..........oooXXXXXOOOOOOOOOOOOOOOOOOOOOOOOXXXXXXXXooo...........",
"..+++   ##oooXXXXXOOOOOOOOOOOOOOOOOOOOOOOOXXXXXXXXooo###   ++...",
"..+++   #####oooXXXXXXXXXXXXXXXXXXXXXXXXXXXXXXXooo+++###   ++...",
"..+++++++++++oooXXXXXXXXXXXXXXXXXXXXXXXXXXXXXXXooo###++++++++...",
"..+++++++++++###ooooooooooooooooooooooooooooooo+#####++++++++...",
"..+++++++++++###ooooooooooooooooooooooooooooooo+#####++++++++...",
"................................................................",
"................................................................"
};
