/* XPM */
static char *_92ff38f620849e4bf74eb75db2ace68Bx39hdgW5z9NY7N6[] = {
/* columns rows colors chars-per-pixel */
"64 64 9 1 ",
"  c #78726B",
". c #80623D",
"X c #FF5722",
"o c #F44336",
"O c #FFEB3B",
"+ c #B38C5B",
"@ c #C49356",
"# c #CFAE87",
"$ c #E6EE9C",
/* pixels */
"................................................................",
"................................................................",
"................................................................",
"...+++++++++++++@@@++++++++...+++++@@@@@@@@+++#####+++++++++++..",
"...+++++++++++++@@@++++++++...+++++@@@@@@@@+++#####+++++++++++..",
"...++   ######+++++@@@@@+++...+++++#####################   +++..",
"...++   ######+++++@@@@@+++...+++++#####################   +++..",
"...++   ######+++++@@@@@+++...+++++#####################   +++..",
"...+++++++++++########+++++...++++++++++@@@@@@@@@@@+++++++++++..",
"...+++++++++++########+++++...++++++++++@@@@@@@@@@@+++++++++++..",
"...+++++++++++########+++++...++++++++++@@@@@@@@@@@+++++++++++..",
"................................................................",
"................................................................",
"...+++++++++++@@+++++++++++########+++++...+++++++++++++++++++..",
"...+++++++++++@@+++++++++++########+++++...+++++++++++++++++++..",
"...+++++++++++@@+++++++++++########+++++...+++++++++++++++++++..",
"...++   @@@@@@#############+++++++++++++...+++++@@@@@@##   +++..",
"...++   @@@@@@#############+++++++++++++...+++++@@@@@@##   +++..",
"...++   @@@@@@#############+++++++++++++...+++++@@@@@@##   +++..",
"...++@@@+++++++++++++++++oo+++++++++++++...@@@@@++++++++++++++..",
"...++@@@+++++++++++++++++oo+++++++++++++...@@@@@++++++++++++++..",
"...++@@@++++++++++++++oooXXooo++++++++++...@@@@@++++++++++++++..",
"......................oooXXooo..................................",
"..............ooo.....oooXXXXXoo......oo........................",
"...+++++++++++ooo++...oooXXXXXoo@@@@@@oo@@@+++++++++++++++++++..",
"...++++++++oooXXXoo...+++ooXXXoo@@@oooXXooo+++++++++++++++++++..",
"...++++++++oooXXXoo...+++ooXXXoo@@@oooXXooo+++++++++++++++++++..",
"...++   +++oooXXXoo...+++ooXXXoo###oooXXooo@@@@@@@@@@@@@   +++..",
"...++   +ooXXXXXXoo...+++ooXXXoo###oooXXooo@@@@@@@@@@@@@   +++..",
"...++   +ooXXXXXXoo...+++ooXXXoo###oooXXooo@@@@@@@@@@@@@   +++..",
"...++@@@@ooXXXooo++...+++ooXXXoo@@@oooXXXXXooo+++++oooooooo+++..",
"...++@@@@ooXXXooo++...+++ooXXXoo@@@oooXXXXXooo+++++oooooooo+++..",
".........ooXXXXXXoo...oooXXXXXoo......ooXXXooo..oooXXXXXooo.....",
".........ooXXXXXXoo...oooXXXXXoo......ooXXXooo..oooXXXXXooo.....",
"...........oooXXXXXoooXXXXXooo........ooXXXooo..oooXXXoo........",
"...++++++++oooXXXXXoooXXXXXooo++++++++ooXXXooo++oooXXXoo++++++..",
"...++++++++###oooXXXXXXXXXXooo++++++++ooXXXooo++oooXXXoo++++++..",
"...++++++++###oooXXXXXXXXXXooo++++++++ooXXXooo++oooXXXoo++++++..",
"...++   ###+++oooXXXXXXXXXXXXXoo######ooXXXoooooXXXXXXoo   +++..",
"...++   ###+++oooXXXXXXXXXXXXXoo######ooXXXoooooXXXXXXoo   +++..",
"...+++++++++++oooXXXXXOOOXXXXXooooooooXXXXXXXXXXXXXXXXoo++++++..",
"...+++++++++++oooXXXXXOOOXXXXXooooooooXXXXXXXXXXXXXXXXoo++++++..",
"...+++++++++++oooXXXXXOOOXXXXXooooooooXXXXXXXXXXXXXXXXoo++++++..",
"...........oooXXXXXXXXOOOXXXXXXXXXXXXXXXXXXXXXOOXXXooo..........",
"...........oooXXXXXXXXOOOXXXXXXXXXXXXXXXXXXXXXOOXXXooo..........",
".........ooXXXXXXXXXXXOOOOOXXXOOXXXOOOXXOOOOOOOOXXXooo..........",
"...++++++ooXXXXXXXXXXXOOOOOXXXOOXXXOOOXXOOOOOOOOXXXooo@@@@@+++..",
"...++++++ooXXXXXXXXOOOOOOOOOOOOOOOOOOOOOOOOOOOXXXXXXXXoo@@@+++..",
"...++++++ooXXXXXXXXOOOOOOOOOOOOOOOOOOOOOOOOOOOXXXXXXXXoo@@@+++..",
"...++   +ooXXXXXXXXOOOOOOOOOOOOOOOOOOOOOOOOOOOXXXXXXXXoo   +++..",
"...++   +ooXXXXXXXXOOOOOOOOOOOOOOOOOOOOOOOOOOOXXXXXXXXoo   +++..",
"...+++++#ooXXXXXXXXOOOOOOOOOOO$$$$$$$$$$OOOXXXXXXXXXXXoo###+++..",
"...+++++#ooXXXXXXXXOOOOOOOOOOO$$$$$$$$$$OOOXXXXXXXXXXXoo###+++..",
"...+++++#ooXXXXXXXXOOOOOOOO$$$$$$$$$$$$$OOOOOOXXXXXXXXoo###+++..",
".........ooXXXXXXXXOOOOOOOO$$$$$$$$$$$$$OOOOOOXXXXXXXXoo........",
".........ooXXXXXXXXOOOOOOOO$$$$$$$$$$$$$OOOOOOXXXXXXXXoo........",
"...........oooXXXXXXXXOOOOOOOOOOOOOOOOOOOOOOOOXXXXXooo..........",
"...++   ###oooXXXXXXXXOOOOOOOOOOOOOOOOOOOOOOOOXXXXXooo##   +++..",
"...++   ###+++oooXXXXXXXXXXXXXXXXXXXXXXXXXXXXXXXooo#####   +++..",
"...++++++++###oooXXXXXXXXXXXXXXXXXXXXXXXXXXXXXXXooo+++++++++++..",
"...++++++++#####+ooooooooooooooooooooooooooooooo###+++++++++++..",
"...++++++++#####+ooooooooooooooooooooooooooooooo###+++++++++++..",
"................................................................",
"................................................................"
};
