/* XPM */
static char *_20417753b8f4792df03786662dc1065748aLD5Tn3nMevl1[] = {
/* columns rows colors chars-per-pixel */
"40 48 200 2 ",
"   c None",
".  c #020203",
"X  c #0C0C0D",
"o  c #06060A",
"O  c #110E0D",
"+  c #12110F",
"@  c #0F1011",
"#  c #151413",
"$  c #181715",
"%  c #191916",
"&  c #1D1C1A",
"*  c #171818",
"=  c #0F0D11",
"-  c #211E1B",
";  c #231E17",
":  c #2F120D",
">  c #1F201E",
",  c #23221E",
"<  c #29251C",
"1  c #332B16",
"2  c #1F1D20",
"3  c #242422",
"4  c #292623",
"5  c #272826",
"6  c #2D2A24",
"7  c #252628",
"8  c #2B2C2C",
"9  c #27292A",
"0  c #322C24",
"q  c #392F24",
"w  c #332E2A",
"e  c #343324",
"r  c #3B3526",
"t  c #363927",
"y  c #35312C",
"u  c #3B352D",
"i  c #353929",
"p  c #2D3136",
"a  c #343434",
"s  c #3C3730",
"d  c #3C3935",
"f  c #373A3E",
"g  c #3B3B3B",
"h  c #373738",
"j  c #2D2E30",
"k  c #490E11",
"l  c #43390E",
"z  c #41352A",
"x  c #433B2D",
"c  c #4A3A2B",
"v  c #433B33",
"b  c #493E33",
"n  c #423E3E",
"m  c #3D4329",
"M  c #574517",
"N  c #735914",
"B  c #49462D",
"V  c #51492E",
"C  c #4B4136",
"Z  c #4C4339",
"A  c #484839",
"S  c #514539",
"D  c #55493D",
"F  c #5C4E3E",
"G  c #534334",
"H  c #4E5434",
"J  c #585938",
"K  c #654A37",
"L  c #665B3C",
"P  c #796329",
"I  c #3F3F40",
"U  c #434343",
"Y  c #4C4B4B",
"T  c #4A4846",
"R  c #524C41",
"E  c #5A4E42",
"W  c #514D4B",
"Q  c #534640",
"!  c #5E5246",
"~  c #4E5054",
"^  c #4F5258",
"/  c #545252",
"(  c #5D5A53",
")  c #5A5B5D",
"_  c #525459",
"`  c #4E4F52",
"'  c #645444",
"]  c #655A4C",
"[  c #6B5B4D",
"{  c #6A5947",
"}  c #735E4B",
"|  c #6A5F57",
" . c #796648",
".. c #6D7748",
"X. c #717B4A",
"o. c #666159",
"O. c #746353",
"+. c #786656",
"@. c #7C6A5B",
"#. c #736D50",
"$. c #5B5C62",
"%. c #595D65",
"&. c #5F6065",
"*. c #5E6168",
"=. c #656466",
"-. c #736D67",
";. c #6A6D73",
":. c #6B6F78",
">. c #6D7077",
",. c #6E7179",
"<. c #787677",
"1. c #967515",
"2. c #8E5A3A",
"3. c #AD6D27",
"4. c #816E5D",
"5. c #866C53",
"6. c #89715A",
"7. c #907C50",
"8. c #8C7662",
"9. c #927C68",
"0. c #827D7A",
"q. c #A97E73",
"w. c #78834E",
"e. c #B88D19",
"r. c #B4973D",
"t. c #E6B81A",
"y. c #8E814B",
"u. c #9C846E",
"i. c #9C8264",
"p. c #9C8571",
"a. c #A88B6B",
"s. c #A28A74",
"d. c #A98F78",
"f. c #AE937C",
"g. c #AA9077",
"h. c #B7987A",
"j. c #BBA661",
"k. c #CD9950",
"l. c #C0A55B",
"z. c #C3AB59",
"x. c #C39F77",
"c. c #D6B86D",
"v. c #C4A17A",
"b. c #D2AB7D",
"n. c #CAB066",
"m. c #E8C976",
"M. c #F7D079",
"N. c #757983",
"B. c #7E818A",
"V. c #81848E",
"C. c #8D8784",
"Z. c #868993",
"A. c #8B8E99",
"S. c #8A8D96",
"D. c #8D919C",
"F. c #91949E",
"G. c #918A86",
"H. c #B49981",
"J. c #BA9E86",
"K. c #B29780",
"L. c #A59E9A",
"P. c #BEA187",
"I. c #AAA19D",
"U. c #989BA6",
"Y. c #9A9DA9",
"T. c #9598A3",
"R. c #9DA1AE",
"E. c #9FA3B0",
"W. c #B3ABA6",
"Q. c #BAB2AD",
"!. c #AAAFBD",
"~. c #A4A9B6",
"^. c #ACB1BF",
"/. c #BFB6B2",
"(. c #D89D83",
"). c #C3A58B",
"_. c #CBAB8E",
"`. c #C2A387",
"'. c #CDAE93",
"]. c #D1AF90",
"[. c #D2B193",
"{. c #DAB798",
"}. c #E4BA89",
"|. c #E2BE9C",
" X c #C4BAB6",
".X c #E6C19E",
"XX c #F4C693",
"oX c #FFE786",
"OX c #EBC5A2",
"+X c #EFC8A5",
"@X c #F5CEA9",
"#X c #F1CAA7",
"$X c #F9D1AB",
"%X c #FFD9B2",
"&X c #ADB2C1",
"*X c #AFB4C3",
"=X c #B1B6C5",
"-X c #B0B5C3",
";X c #B8BECD",
":X c #CECBD1",
/* pixels */
"                              $ + $ + +     l.l.l.l.l.l.l.l.l.l.l.l.l.l.l.l.l.l.",
"                      $ % - 3 8 8 a h d a 8 - l.l.l.l.l.l.l.l.l.l.l.l.l.l.l.l.l.",
"                  * , 8 h g g g g I g A U Y ` T a * l.l.l.l.l.l.l.l.l.l.l.l.l.l.",
"              % & 8 g n g h g g g g h f h h h U / ~ 8 l.l.l.l.l.l.l.l.l.l.l.l.l.",
"            % 3 8 h g h g g g g g g g g g g g h h U ) I l.l.l.l.l.l.l.l.l.l.l.l.",
"          % 7 8 8 h g g g g g g g g g g g g g g g h g ) T l.l.l.l.l.l.l.l.l.l.l.",
"        % 3 8 8 8 g g g g g g g g g g g g g g g g m g g ) T l.l.l.l.l.l.l.l.l.l.",
"      % 3 8 8 8 8 g g g g g g g g g h g g g g h I I g g I &.h l.l.l.l.l.l.l.l.l.",
"    % > 9 8 8 8 8 g g g h g I g g g g g g g g g I f g g h ` ) l.l.l.l.l.l.l.l.l.",
"    % 9 8 8 8 9 8 g g g I g j a h I I g g g g g h f g g g I =.n l.l.l.l.l.l.l.l.",
"    , 8 8 8 8 8 8 f m I 3 $ 9 3 & % 3 a n g g g g g g g g g ) ) l.l.l.l.l.l.l.l.",
"  $ 7 8 8 9 8 9 8 I p * I V.~.R.A.:.U & $ a I g h g g I g 7 , - & l.l.l.l.l.l.l.",
"  % 9 8 8 8 8 8 j 4 * :.&X*X*X*X&X-X&XT.$.3 $ h I g h 3 % h =.,.- l.l.l.l.l.l.l.",
"  & 8 8 9 8 8 j - 2 A.*X=X~.D.Y.!.=X&X&X&X~.) $ 7 8 $ U Z.^.*X;X>.l.l.l.l.l.l.l.",
"  , 8 9 8 8 8 > 2 F.=X*XN.8 , 3 j ^ V.!.=X!.=XA.8 5 B.&X=X*X*X&X~.l.l.l.l.l.l.l.",
"% 3 8 8 8 8 3 & <.~.*X%.% O.f.s.4.S - 8 :.!.^.!.~.E.*X*X~.:.f ;.&Xl.l.l.l.l.l.l.",
"$ 3 8 8 8 8 $ $.T.T.^ ; d.'.).P.J.).H.+.3 8 Z.=X~.&X&X:.3 w ! % V.l.l.l.l.l.l.l.",
"$ 3 8 8 8 8 $ ,.U._ ; K.).@.u.{.|.).H.P.J.[ $ %.=X~.g - @.J.{.} 7 l.l.l.l.l.l.l.",
"  - 8 8 8 8 * ;.U.9 O.[.] # - w 4.{.+X'.K.P.q.; f 7 v K.{.{.9.b % l.l.l.l.l.l.l.",
"  & 8 8 8 8 $ =.Y.p [ `.3 v E d & - O.].OX)._.`.S +.].[.s.v & 3 % l.l.l.l.l.l.l.",
"  % 8 8 8 8 $ %.Y.I E K.& v C Z E C 2 - O.s.b -.d.E +.Z # w Q Z % l.l.l.l.l.l.l.",
"  % 9 8 8 j * Y E.Y b K.& s 3 $ & w b b , - * b ] @ - w b d 5 u % l.l.l.l.l.l.l.",
"  $ 3 8 8 w & g Y.$.w ).s @ x 7.L 0 & 4 w b , +.8.$ x - * ; < - l.l.l.l.l.l.l.l.",
"    & 8 8 8 2 8 T.,.3 H.K.8 P oXm.n.: : q - - _.{.3 < { K k c # , d l.l.l.l.l.l.",
"    $ 7 8 8 9 & V.Z., p.'.H.$ c.oXoX2.2.c.% 9.@X@X8.0 oXM.K O ; . u s l.l.l.l.l.",
"      , 8 8 8 $ ;.T.7 { _.@X4.$ y.c.m.j.0 E +X.X.X|.q V y.0 v &   a d y z.z.z.z.",
"      % 7 8 8 % ` Y.=.% u 8.|.f.b 6 < 6 @.OX.X|.|.OX{.] S J.u.o   Z , , 0       ",
"        % 7 8 3 8 A.U.V.^ 7 , D `.{.]..X@X.X+X$X@XOX.X$Xp.' 0 - % 3 y   u 7     ",
"  k.      & 7 8 & 5 &.S.Y.D.B.p C @XOX.X.X_.[ 8.u._.+X`.# *._ * v R w     Y     ",
"k.  k.      % , 8 , $ > %.D.Y.=.b +X|..X|..Xg.{ +.].%X8.p :X~ o   3 R 5   R g   ",
"k.k.k.k.k.    $ & 7 j * h F.F.&.u OXOX+X+X+X$X%X%X@X[.w N.V.X       5 ] , % (   ",
"k.k.k.k.          * & $ h A.Y.,.& O.9.g.J.).`.f.8.D % & =.3         O A A + W $ ",
"k.k.k.k.            # ; $ 7 h h ; ; = $ ; - ; # = O $ & O             6 u 6 R 8 ",
"k.k.k.k.          @ D x. .$ 6 # 4 ' { b ; $ 0 c * v %           x <   & u 6 ( j ",
"k.k.k.k.          0 a.b.x., E F c 3 - w o.C.| ; r b 4         o r.z.#   u 8 -.- ",
"k.k.k.k.k.      X F x.}.b.; D { 5.5.6 <.I.:X X=.u & 0 $         . z.@.. T R !   ",
"k.k.k.k.k.k.    - ; r { } ; S '  .5.u W <./.0.U F e V #         o k.s.6 ] | -   ",
"k.k.k.k.k.k.k.$ 0 L J C r % E } 6.5.} < -.G.W z a.& 0 v o X ; N 1.3.b.( D ,     ",
"k.k.k.k.k.k.k.$ 6 , q V B % 0 q G c F z O o o q < % u > M t.e.e.1.l n.' .       ",
"k.k.k.k.k.k.k.$ 9.a.} D S - Z / Y Z n n R W ( o.C.L.% % M N 1 o   . P  .        ",
"k.k.k.k.k.k.k.* a.x.h.}.h., 8.W./.Q.Q.Q.W.I.I.I.I.-.$ + o         1 r.r         ",
"k.k.k.k.k.k.k.@ z a.x.XXv.$ w g T Y W W / / W g 8 , $               o           ",
"k.k.k.k.k.k.k.k.# 3 ' 9.C , i i t 6 e i e e m H B H ,                           ",
"k.k.k.k.k.k.k.k.k.$ X @ + 3 A X.X.w.X.B ....H J > $ & %                         ",
"k.k.k.k.k.k.k.k.k.k.  & % @ % , i J 3 X , i @ # & *                             ",
"k.k.k.k.k.k.k.k.k.k.  $ % # % & * # X $ % # & 3 > &                             ",
"k.k.k.k.k.k.k.k.k.k.  $ & & & > & &     % % $ % % *                             ",
"k.k.k.k.k.k.k.k.k.k.      + @ # #                                               "
};
