/* XPM */
static char *_97793339cc34dd0cbda2dd6b43318a6FVc96TR0TE4a6aDw[] = {
/* columns rows colors chars-per-pixel */
"64 64 11 1 ",
"  c black",
". c #78726B",
"X c #80623D",
"o c #4CAF50",
"O c #CDDC39",
"+ c #FFEB3B",
"@ c #B38C5B",
"# c #C49356",
"$ c #8BC34A",
"% c #009688",
"& c #CFAE87",
/* pixels */
"XXXXXXXXXXXXXXXXXXXXXXXXXXXXXXXXXXXXXXXXXXXXXXXXXXXXXXXXXXXXXXXX",
"XXXXXXXXXXXXXXXXXXXXXXXXXXXXXXXXXXXXXXXXXXXXXXXXXXXXXXXXXXXXXXXX",
"XXXXXXXXXXXXXXXXXXXXXXXXXXXXXXXXXXXXXXXXXXXXXXXXXXXXXXXXXXXXXXXX",
"XXX@@@@@@@@@@@@@###@@@@@@@@XXX@@@@@########@@@&&&&&@@@@@@@@@@@XX",
"XXX@@@@@@@@@@@@@###@@@@@@@@XXX@@@@@########@@@&&&&&@@@@@@@@@@@XX",
"XXX@@...&&&&&&@@@@@#####@@@XXX@@@@@&&&&&&&&&&&&&&&&&&&&&...@@@XX",
"XXX@@...&&&&&&@@@@@#####@@@XXX@@@@@&&&&&&&&&&&&&&&&&&&&&...@@@XX",
"XXX@@...&&&&&&@@@@@#####@@@XXX@@@@@&&&&&&&&&&&&&&&&&&&&&...@@@XX",
"XXX@@@@@@@@@@@&&&&&&&&@@@@@XXX@@@@@@@@@@###########@@@@@@@@@@@XX",
"XXX@@@@@@@@@@@&&&&&&&&@@@@@XXX@@@@@@@@@@###########@@@@@@@@@@@XX",
"XXX@@@@@@@@@@@&&&&&&&&@@@@@XXX@@@@@@@@@@###########@@@@@@@@@@@XX",
"XXXXXXXXXXXXXXXXXXXXXXXXXXXXXXXXXXXXXXXXXXXXXXXXXXXXXXXXXXXXXXXX",
"XXXXXXXXXXXXXXXXXXXXXXXXXXXXXXXXXXXXXXXXXXXXXXXXXXXXXXXXXXXXXXXX",
"XXX@@@@@@@@@@@##@@@@@@@@@@@&&&&&&&&@@@@@XXX@@@@@@@@@@@@@@@@@@@XX",
"XXX@@@@@@@@@@@##@@@@@@@@@@@&&&&&&&&@@@@@XXX@@@@@@@@@@@@@@@@@@@XX",
"XXX@@@@@@@@@@@##@@@@@@@@@@@&&&&&&&&@@@@@XXX@@@@@@@@@@@@@@@@@@@XX",
"XXX@@...######&&&&&&&                     X@@@@@######&&...@@@XX",
"XXX@@...######&&&&&&&                     X@@@@@######&&...@@@XX",
"XXX@@...######&&&&&&&                     X@@@@@######&&...@@@XX",
"XXX@@###@@@@@@@@@@@@@                     X#####@@@@@@@@@@@@@@XX",
"XXX@@###@@@@@@       %%%oooo$$$$$$$$$$$$$$       @@@@@@@@@@@@@XX",
"XXX@@###@@@@@@       %%%oooo$$$$$$$$$$$$$$       @@@@@@@@@@@@@XX",
"XXXXXXXXXXXXXX       %%%oooo$$$$$$$$$$$$$$       XXXXXXXXXXXXXXX",
"XXXXXXXXXXXXXX       %%%oooo$$$$$$$$$$$$$$       XXXXXXXXXXXXXXX",
"XXX@@@@@@@@@@@       %%%oooo$$$$$$$$$$$$$$       @@@@@@@@@@@@@XX",
"XXX@@@@@@@    %%%ooooooo$$$$$$$$$$$+++++++OOOO%%%    @@@@@@@@@XX",
"XXX@@@@@@@    %%%ooooooo$$$$$$$$$$$+++++++OOOO%%%    @@@@@@@@@XX",
"XXX@@...@@    %%%ooooooo$$$$$$$$$$$+++++++OOOO%%%    ###...@@@XX",
"XXX@@...@@    %%%ooooooo$$$$$$$$$$$+++++++OOOO%%%    ###...@@@XX",
"XXX@@..   %%%%ooooooo$$$$$$$$$$$$$$+++++++++++$$$%%%%   ...@@@XX",
"XXX@@##   %%%%ooooooo$$$$$$$$$$$$$$+++++++++++$$$%%%%   @@@@@@XX",
"XXX@@##   %%%%ooooooo$$$$$$$$$$$$$$+++++++++++$$$%%%%   @@@@@@XX",
"XXXXXXX   %%%%ooooooo$$$$$$$$$$$$$$+++++++++++$$$%%%%   XXXXXXXX",
"XXXXXXX   ooooooooooo$$$$$$$$$$$$$$$$$$+++++++$$$$$$$   XXXXXXXX",
"XXXXXXX   ooooooooooo$$$$$$$$$$$$$$$$$$+++++++$$$$$$$   XXXXXXXX",
"XXX@@@@   ooooooooooo$$$$$$$$$$$$$$$$$$+++++++$$$$$$$   @@@@@@XX",
"XXX@@@@   ooooooooooo$$$$$$$$$$$$$$$$$$+++++++$$$$$$$   @@@@@@XX",
"XXX@@@@   ooooooooooo$$$$$$$$$$$$$$$$$$+++++++$$$$$$$   @@@@@@XX",
"XXX    %%%ooooooooooo$$$$$$$$$$$$$$$$$$$$$$$$$$$$$$$$ooo    @@XX",
"XXX    %%%ooooooooooo$$$$$$$$$$$$$$$$$$$$$$$$$$$$$$$$ooo    @@XX",
"XXX    %%%ooooooooooo$$$$$$$$$$$$$$$$$$$$$$$$$$$$$$$$ooo    @@XX",
"XXX    %%%ooooooooooo$$$$$$$$$$$$$$$$$$$$$$$$$$$$$$$$ooo    @@XX",
"XXX    %%%oooooooooooooo$$$$$$$$$$$$$$$$$$$$$$$$$$$$$ooo    @@XX",
"XXX    %%%oooooooooooooo$$$$$$$$$$$$$$$$$$$$$$$$$$$$$ooo    XXXX",
"XXX    %%%oooooooooooooo$$$$$$$$$$$$$$$$$$$$$$$$$$$$$ooo    XXXX",
"XXX    %%%oooooooooooooo$$$$$$$$$$$$$$$$$$$$$$$$$$$$$ooo    XXXX",
"XXX    %%%oooooooooooooo$$$$$$$$$$$$$$$$$$$$$$$$$$$$$ooo    @@XX",
"XXX    %%%oooooooooooooooooo$$$$$$$$$$$$$$$$$$$$$ooooooo    @@XX",
"XXX    %%%oooooooooooooooooo$$$$$$$$$$$$$$$$$$$$$ooooooo    @@XX",
"XXX    %%%oooooooooooooooooo$$$$$$$$$$$$$$$$$$$$$ooooooo    @@XX",
"XXX    %%%oooooooooooooooooo$$$$$$$$$$$$$$$$$$$$$ooooooo    @@XX",
"XXX    %%%%%%%ooooooooooooooooooooooooooooooooooooooo%%%    @@XX",
"XXX    %%%%%%%ooooooooooooooooooooooooooooooooooooooo%%%    @@XX",
"XXX    %%%%%%%ooooooooooooooooooooooooooooooooooooooo%%%    @@XX",
"XXX    %%%%%%%ooooooooooooooooooooooooooooooooooooooo%%%    XXXX",
"XXXXXXX   %%%%%%%%%%%ooooooooooooooooooooooooo%%%%%%%   XXXXXXXX",
"XXXXXXX   %%%%%%%%%%%ooooooooooooooooooooooooo%%%%%%%   XXXXXXXX",
"XXX@@..   %%%%%%%%%%%ooooooooooooooooooooooooo%%%%%%%   ...@@@XX",
"XXX@@..   %%%%%%%%%%%ooooooooooooooooooooooooo%%%%%%%   ...@@@XX",
"XXX@@@@   %%%%%%%%%%%ooooooooooooooooooooooooo%%%%%%%   @@@@@@XX",
"XXX@@@@@@@                                           @@@@@@@@@XX",
"XXX@@@@@@@                                           @@@@@@@@@XX",
"XXXXXXXXXX                                           XXXXXXXXXXX",
"XXXXXXXXXX                                           XXXXXXXXXXX"
};
