/* XPM */
static char *_e0f85c6686448cde2d41376abfe9225nQBiw2YkdQyGBpde[] = {
/* columns rows colors chars-per-pixel */
"64 64 11 1 ",
"  c black",
". c #78726B",
"X c #80623D",
"o c #4CAF50",
"O c #CDDC39",
"+ c #FFEB3B",
"@ c #B38C5B",
"# c #C49356",
"$ c #8BC34A",
"% c #009688",
"& c #CFAE87",
/* pixels */
"XXXXXXXXXXXXXXXXXXXXXXXXXXXXXXXXXXXXXXXXXXXXXXXXXXXXXXXXXXXXXXXX",
"XXXXXXXXXXXXXXXXXXXXXXXXXXXXXXXXXXXXXXXXXXXXXXXXXXXXXXXXXXXXXXXX",
"XXXXXXXXXXXXXXXXXXXXXXXXXXXXXXXXXXXXXXXXXXXXXXXXXXXXXXXXXXXXXXXX",
"XXX@@@@@@@@@@@@@###@@@@@@@@XXX@@@@@########@@@&&&&&@@@@@@@@@@@XX",
"XXX@@@@@@@@@@@@@###@@@@@@@@XXX@@@@@########@@@&&&&&@@@@@@@@@@@XX",
"XXX@@...&&&&&&@@@@@#####@@@XXX@@@@@&&&&&&&&&&&&&&&&&&&&&...@@@XX",
"XXX@@...&&&&&&@@@@@#####@@@XXX@@@@@&&&&&&&&&&&&&&&&&&&&&...@@@XX",
"XXX@@...&&&&&&@@@@@#####@@@XXX@@@@@&&&&&&&&&&&&&&&&&&&&&...@@@XX",
"XXX@@@@@@@@@@@&&&&&&&&@@@@@XXX@@@@@@@@@@###########@@@@@@@@@@@XX",
"XXX@@@@@@@@@@@&&&&&&&&@@@@@XXX@@@@@@@@@@###########@@@@@@@@@@@XX",
"XXX@@@@@@@@@@@&&&&&&&&@@@@@XXX@@@@@@@@@@###########@@@@@@@@@@@XX",
"XXXXXXXXXXXXXXXXXXXXXXXXXXXXXXXXXXXXXXXXXXXXXXXXXXXXXXXXXXXXXXXX",
"XXXXXXXXXXXXXXXXXXXXXXXXXXXXXXXXXXXXXXXXXXXXXXXXXXXXXXXXXXXXXXXX",
"XXX@@@@@@@@@@@##@@@@@                       @@@@@@@@@@@@@@@@@@XX",
"XXX@@@@@@@@@@@##@@@@@                       @@@@@@@@@@@@@@@@@@XX",
"XXX@@@@@@@@@@@##@@@@@                       @@@@@@@@@@@@@@@@@@XX",
"XXX@@...######&&&&&&&                       @@@@######&&...@@@XX",
"XXX@@...######&&&&&&&                       @@@@######&&...@@@XX",
"XXX@@...######       %%%%oooo$$$$$$$$$$$$$$$       ###&&...@@@XX",
"XXX@@###@@@@@@       %%%%oooo$$$$$$$$$$$$$$$       @@@@@@@@@@@XX",
"XXX@@###@@@@@@       %%%%oooo$$$$$$$$$$$$$$$       @@@@@@@@@@@XX",
"XXX@@###@@@@@@       %%%%oooo$$$$$$$$$$$$$$$       @@@@@@@@@@@XX",
"XXXXXXXXXX    %%%%ooooooo$$$$$$$$$$$++++++++OOO%%%%    XXXXXXXXX",
"XXXXXXXXXX    %%%%ooooooo$$$$$$$$$$$++++++++OOO%%%%    XXXXXXXXX",
"XXX@@@@@@@    %%%%ooooooo$$$$$$$$$$$++++++++OOO%%%%    @@@@@@@XX",
"XXX@@@@@@@    %%%%ooooooo$$$$$$$$$$$++++++++OOO%%%%    @@@@@@@XX",
"XXX@@@@@@@    %%%%ooooooo$$$$$$$$$$$++++++++OOO%%%%    @@@@@@@XX",
"XXX@@..   %%%%ooooooo$$$$$$$$$$$$$$$+++++++++++$$$$%%%%   .@@@XX",
"XXX@@..   %%%%ooooooo$$$$$$$$$$$$$$$+++++++++++$$$$%%%%   .@@@XX",
"XXX@@..   %%%%ooooooo$$$$$$$$$$$$$$$+++++++++++$$$$%%%%   .@@@XX",
"XXX@@##   %%%%ooooooo$$$$$$$$$$$$$$$+++++++++++$$$$%%%%   @@@@XX",
"XXX@@##   %%%%ooooooo$$$$$$$$$$$$$$$+++++++++++$$$$%%%%   @@@@XX",
"XXXXXXX   ooooooooooo$$$$$$$$$$$$$$$$$$$+++++++$$$$$$$$   XXXXXX",
"XXXXXXX   ooooooooooo$$$$$$$$$$$$$$$$$$$+++++++$$$$$$$$   XXXXXX",
"XXXXXXX   ooooooooooo$$$$$$$$$$$$$$$$$$$+++++++$$$$$$$$   XXXXXX",
"XXX@@@@   ooooooooooo$$$$$$$$$$$$$$$$$$$+++++++$$$$$$$$   @@@@XX",
"XXX    %%%ooooooooooo$$$$$$$$$$$$$$$$$$$$$$$$$$$$$$$$$$ooo    XX",
"XXX    %%%ooooooooooo$$$$$$$$$$$$$$$$$$$$$$$$$$$$$$$$$$ooo    XX",
"XXX    %%%ooooooooooo$$$$$$$$$$$$$$$$$$$$$$$$$$$$$$$$$$ooo    XX",
"XXX    %%%ooooooooooo$$$$$$$$$$$$$$$$$$$$$$$$$$$$$$$$$$ooo    XX",
"XXX    %%%ooooooooooo$$$$$$$$$$$$$$$$$$$$$$$$$$$$$$$$$$ooo    XX",
"XXX    %%%ooooooooooooooo$$$$$$$$$$$$$$$$$$$$$$$$$$$$$$ooo    XX",
"XXX    %%%ooooooooooooooo$$$$$$$$$$$$$$$$$$$$$$$$$$$$$$ooo    XX",
"XXX    %%%ooooooooooooooo$$$$$$$$$$$$$$$$$$$$$$$$$$$$$$ooo    XX",
"XXX    %%%ooooooooooooooo$$$$$$$$$$$$$$$$$$$$$$$$$$$$$$ooo    XX",
"XXX    %%%ooooooooooooooooooo$$$$$$$$$$$$$$$$$$$$$$ooooooo    XX",
"XXX    %%%ooooooooooooooooooo$$$$$$$$$$$$$$$$$$$$$$ooooooo    XX",
"XXX    %%%ooooooooooooooooooo$$$$$$$$$$$$$$$$$$$$$$ooooooo    XX",
"XXX    %%%ooooooooooooooooooo$$$$$$$$$$$$$$$$$$$$$$ooooooo    XX",
"XXX    %%%ooooooooooooooooooo$$$$$$$$$$$$$$$$$$$$$$ooooooo    XX",
"XXX    %%%%%%%ooooooooooooooooooooooooooooooooooooooooo%%%    XX",
"XXX    %%%%%%%ooooooooooooooooooooooooooooooooooooooooo%%%    XX",
"XXX    %%%%%%%ooooooooooooooooooooooooooooooooooooooooo%%%    XX",
"XXX    %%%%%%%ooooooooooooooooooooooooooooooooooooooooo%%%    XX",
"XXX    %%%%%%%ooooooooooooooooooooooooooooooooooooooooo%%%    XX",
"XXXXXXX   %%%%%%%%%%%oooooooooooooooooooooooooo%%%%%%%%   XXXXXX",
"XXXXXXX   %%%%%%%%%%%oooooooooooooooooooooooooo%%%%%%%%   XXXXXX",
"XXX@@..   %%%%%%%%%%%oooooooooooooooooooooooooo%%%%%%%%   .@@@XX",
"XXX@@..   %%%%%%%%%%%oooooooooooooooooooooooooo%%%%%%%%   .@@@XX",
"XXX@@@@@@@                                             @@@@@@@XX",
"XXX@@@@@@@                                             @@@@@@@XX",
"XXX@@@@@@@                                             @@@@@@@XX",
"XXXXXXXXXX                                             XXXXXXXXX",
"XXXXXXXXXX                                             XXXXXXXXX"
};
