/* XPM */
static char *aae0b566133c41399c0547ce2ab387c0jFX4ckQmXBxopWrW[] = {
/* columns rows colors chars-per-pixel */
"64 64 11 1 ",
"  c black",
". c #78726B",
"X c #80623D",
"o c #4CAF50",
"O c #CDDC39",
"+ c #FFEB3B",
"@ c #B38C5B",
"# c #C49356",
"$ c #8BC34A",
"% c #009688",
"& c #CFAE87",
/* pixels */
"XXXXXXXXXXXXXXXXXXXXXXXXXXXXXXXXXXXXXXXXXXXXXXXXXXXXXXXXXXXXXXXX",
"XXXXXXXXXXXXXXXXXXXXXXXXXXXXXXXXXXXXXXXXXXXXXXXXXXXXXXXXXXXXXXXX",
"XXXXXXXXXXXXXXXXXXXXXXXXXXXXXXXXXXXXXXXXXXXXXXXXXXXXXXXXXXXXXXXX",
"XXX@@@@@@@@@@@@@###@@@@@@@@XXX@@@@@########@@@&&&&&@@@@@@@@@@@XX",
"XXX@@@@@@@@@@@@@###@@@@@@@@XXX@@@@@########@@@&&&&&@@@@@@@@@@@XX",
"XXX@@...&&&&&&@@@@@#####@@@XXX@@@@@&&&&&&&&&&&&&&&&&&&&&...@@@XX",
"XXX@@...&&&&&&@@@@@#####@@@XXX@@@@@&&&&&&&&&&&&&&&&&&&&&...@@@XX",
"XXX@@...&&&&&&@@@@@#####@@@XXX@@@@@&&&&&&&&&&&&&&&&&&&&&...@@@XX",
"XXX@@@@@@@@@@@&&&&&&&&@@@@@XXX@@@@@@@@@@###########@@@@@@@@@@@XX",
"XXX@@@@@@@@@@@&&&&&&&&@@@@@XXX@@@@@@@@@@###########@@@@@@@@@@@XX",
"XXX@@@@@@@@@@@&&&&&&&&@@@@@XXX@@@@@@@@@@###########@@@@@@@@@@@XX",
"XXXXXXXXXXXXXXXXXXXXX                       XXXXXXXXXXXXXXXXXXXX",
"XXXXXXXXXXXXXXXXXXXXX                       XXXXXXXXXXXXXXXXXXXX",
"XXX@@@@@@@@@@@##@@@@@                       @@@@@@@@@@@@@@@@@@XX",
"XXX@@@@@@@@@@@##@@@@@                       @@@@@@@@@@@@@@@@@@XX",
"XXX@@@@@@@@@@@##@@@@@                       @@@@@@@@@@@@@@@@@@XX",
"XXX@@...######       %%%%oooo$$$$$$$$$$$$$$$       ###&&...@@@XX",
"XXX@@...######       %%%%oooo$$$$$$$$$$$$$$$       ###&&...@@@XX",
"XXX@@...######       %%%%oooo$$$$$$$$$$$$$$$       ###&&...@@@XX",
"XXX@@###@@@@@@       %%%%oooo$$$$$$$$$$$$$$$       @@@@@@@@@@@XX",
"XXX@@###@@@@@@       %%%%oooo$$$$$$$$$$$$$$$       @@@@@@@@@@@XX",
"XXX@@###@@    %%%%ooooooo$$$$$$$$$$$++++++++OOO%%%%    @@@@@@@XX",
"XXXXXXXXXX    %%%%ooooooo$$$$$$$$$$$++++++++OOO%%%%    XXXXXXXXX",
"XXXXXXXXXX    %%%%ooooooo$$$$$$$$$$$++++++++OOO%%%%    XXXXXXXXX",
"XXX@@@@@@@    %%%%ooooooo$$$$$$$$$$$++++++++OOO%%%%    @@@@@@@XX",
"XXX@@@@   %%%%ooooooo$$$$$$$$$$$$$$$+++++++++++$$$$%%%%   @@@@XX",
"XXX@@@@   %%%%ooooooo$$$$$$$$$$$$$$$+++++++++++$$$$%%%%   @@@@XX",
"XXX@@..   %%%%ooooooo$$$$$$$$$$$$$$$+++++++++++$$$$%%%%   .@@@XX",
"XXX@@..   %%%%ooooooo$$$$$$$$$$$$$$$+++++++++++$$$$%%%%   .@@@XX",
"XXX@@..   %%%%ooooooo$$$$$$$$$$$$$$$+++++++++++$$$$%%%%   .@@@XX",
"XXX@@##   ooooooooooo$$$$$$$$$$$$$$$$$$$+++++++$$$$$$$$   @@@@XX",
"XXX@@##   ooooooooooo$$$$$$$$$$$$$$$$$$$+++++++$$$$$$$$   @@@@XX",
"XXXXXXX   ooooooooooo$$$$$$$$$$$$$$$$$$$+++++++$$$$$$$$   XXXXXX",
"XXXXXXX   ooooooooooo$$$$$$$$$$$$$$$$$$$+++++++$$$$$$$$   XXXXXX",
"XXXXXXX   ooooooooooo$$$$$$$$$$$$$$$$$$$+++++++$$$$$$$$   XXXXXX",
"XXX    %%%ooooooooooo$$$$$$$$$$$$$$$$$$$$$$$$$$$$$$$$$$ooo    XX",
"XXX    %%%ooooooooooo$$$$$$$$$$$$$$$$$$$$$$$$$$$$$$$$$$ooo    XX",
"XXX    %%%ooooooooooo$$$$$$$$$$$$$$$$$$$$$$$$$$$$$$$$$$ooo    XX",
"XXX    %%%ooooooooooo$$$$$$$$$$$$$$$$$$$$$$$$$$$$$$$$$$ooo    XX",
"XXX    %%%ooooooooooo$$$$$$$$$$$$$$$$$$$$$$$$$$$$$$$$$$ooo    XX",
"XXX    %%%ooooooooooooooo$$$$$$$$$$$$$$$$$$$$$$$$$$$$$$ooo    XX",
"XXX    %%%ooooooooooooooo$$$$$$$$$$$$$$$$$$$$$$$$$$$$$$ooo    XX",
"XXX    %%%ooooooooooooooo$$$$$$$$$$$$$$$$$$$$$$$$$$$$$$ooo    XX",
"XXX    %%%ooooooooooooooo$$$$$$$$$$$$$$$$$$$$$$$$$$$$$$ooo    XX",
"XXX    %%%ooooooooooooooo$$$$$$$$$$$$$$$$$$$$$$$$$$$$$$ooo    XX",
"XXX    %%%ooooooooooooooooooo$$$$$$$$$$$$$$$$$$$$$$ooooooo    XX",
"XXX    %%%ooooooooooooooooooo$$$$$$$$$$$$$$$$$$$$$$ooooooo    XX",
"XXX    %%%ooooooooooooooooooo$$$$$$$$$$$$$$$$$$$$$$ooooooo    XX",
"XXX    %%%ooooooooooooooooooo$$$$$$$$$$$$$$$$$$$$$$ooooooo    XX",
"XXX    %%%ooooooooooooooooooo$$$$$$$$$$$$$$$$$$$$$$ooooooo    XX",
"XXX    %%%%%%%ooooooooooooooooooooooooooooooooooooooooo%%%    XX",
"XXX    %%%%%%%ooooooooooooooooooooooooooooooooooooooooo%%%    XX",
"XXX    %%%%%%%ooooooooooooooooooooooooooooooooooooooooo%%%    XX",
"XXX    %%%%%%%ooooooooooooooooooooooooooooooooooooooooo%%%    XX",
"XXXXXXX   %%%%%%%%%%%oooooooooooooooooooooooooo%%%%%%%%   XXXXXX",
"XXXXXXX   %%%%%%%%%%%oooooooooooooooooooooooooo%%%%%%%%   XXXXXX",
"XXXXXXX   %%%%%%%%%%%oooooooooooooooooooooooooo%%%%%%%%   XXXXXX",
"XXX@@..   %%%%%%%%%%%oooooooooooooooooooooooooo%%%%%%%%   .@@@XX",
"XXX@@..   %%%%%%%%%%%oooooooooooooooooooooooooo%%%%%%%%   .@@@XX",
"XXX@@@@@@@                                             @@@@@@@XX",
"XXX@@@@@@@                                             @@@@@@@XX",
"XXX@@@@@@@                                             @@@@@@@XX",
"XXXXXXXXXX                                             XXXXXXXXX",
"XXXXXXXXXX                                             XXXXXXXXX"
};
