/* XPM */
static char *_6f8c55412644690996bc4004bc76566tUc7q8YYVgdjnDGf[] = {
/* columns rows colors chars-per-pixel */
"64 64 11 1 ",
"  c black",
". c #78726B",
"X c #80623D",
"o c #4CAF50",
"O c #CDDC39",
"+ c #FFEB3B",
"@ c #B38C5B",
"# c #C49356",
"$ c #8BC34A",
"% c #009688",
"& c #CFAE87",
/* pixels */
"XXXXXXXXXXXXXXXXXXXXXXXXXXXXXXXXXXXXXXXXXXXXXXXXXXXXXXXXXXXXXXXX",
"XXXXXXXXXXXXXXXXXXXXXXXXXXXXXXXXXXXXXXXXXXXXXXXXXXXXXXXXXXXXXXXX",
"XXXXXXXXXXXXXXXXXXXXXXXXXXXXXXXXXXXXXXXXXXXXXXXXXXXXXXXXXXXXXXXX",
"XX@@@@@@@@@@@&&&&&@@@########@@@@@XXX@@@@@@@@###@@@@@@@@@@@@@XXX",
"XX@@@@@@@@@@@&&&&&@@@########@@@@@XXX@@@@@@@@###@@@@@@@@@@@@@XXX",
"XX@@@...&&&&&&&&&&&&&&&&&&&&&@@@@@XXX@@@#####@@@@@&&&&&&...@@XXX",
"XX@@@...&&&&&&&&&&&&&&&&&&&&&@@@@@XXX@@@#####@@@@@&&&&&&...@@XXX",
"XX@@@...&&&&&&&&&&&&&&&&&&&&&@@@@@XXX@@@#####@@@@@&&&&&&...@@XXX",
"XX@@@@@@@@@@@###########@@@@@@@@@@XXX@@@@@&&&&&&&&@@@@@@@@@@@XXX",
"XX@@@@@@@@@@@###########@@@@@@@@@@XXX@@@@@&&&&&&&&@@@@@@@@@@@XXX",
"XX@@@@@@@@@@@###########@@@@@@@@@@XXX@@@@@&&&&&&&&@@@@@@@@@@@XXX",
"XXXXXXXXXXXXXXXXXXXX                       XXXXXXXXXXXXXXXXXXXXX",
"XXXXXXXXXXXXXXXXXXXX                       XXXXXXXXXXXXXXXXXXXXX",
"XX@@@@@@@@@@@@@@@@@@                       @@@@@##@@@@@@@@@@@XXX",
"XX@@@@@@@@@@@@@@@@@@                       @@@@@##@@@@@@@@@@@XXX",
"XX@@@@@@@@@@@@@@@@@@                       @@@@@##@@@@@@@@@@@XXX",
"XX@@@...&&###       $$$$$$$$$$$$$$$oooo%%%%       ######...@@XXX",
"XX@@@...&&###       $$$$$$$$$$$$$$$oooo%%%%       ######...@@XXX",
"XX@@@...&&###       $$$$$$$$$$$$$$$oooo%%%%       ######...@@XXX",
"XX@@@@@@@@@@@       $$$$$$$$$$$$$$$oooo%%%%       @@@@@@###@@XXX",
"XX@@@@@@@@@@@       $$$$$$$$$$$$$$$oooo%%%%       @@@@@@###@@XXX",
"XX@@@@@@@    %%%%OOO++++++++$$$$$$$$$$$ooooooo%%%%    @@###@@XXX",
"XXXXXXXXX    %%%%OOO++++++++$$$$$$$$$$$ooooooo%%%%    XXXXXXXXXX",
"XXXXXXXXX    %%%%OOO++++++++$$$$$$$$$$$ooooooo%%%%    XXXXXXXXXX",
"XX@@@@@@@    %%%%OOO++++++++$$$$$$$$$$$ooooooo%%%%    @@@@@@@XXX",
"XX@@@@   %%%%$$$$+++++++++++$$$$$$$$$$$$$$$ooooooo%%%%   @@@@XXX",
"XX@@@@   %%%%$$$$+++++++++++$$$$$$$$$$$$$$$ooooooo%%%%   @@@@XXX",
"XX@@@.   %%%%$$$$+++++++++++$$$$$$$$$$$$$$$ooooooo%%%%   ..@@XXX",
"XX@@@.   %%%%$$$$+++++++++++$$$$$$$$$$$$$$$ooooooo%%%%   ..@@XXX",
"XX@@@.   %%%%$$$$+++++++++++$$$$$$$$$$$$$$$ooooooo%%%%   ..@@XXX",
"XX@@@@   $$$$$$$$+++++++$$$$$$$$$$$$$$$$$$$ooooooooooo   ##@@XXX",
"XX@@@@   $$$$$$$$+++++++$$$$$$$$$$$$$$$$$$$ooooooooooo   ##@@XXX",
"XXXXXX   $$$$$$$$+++++++$$$$$$$$$$$$$$$$$$$ooooooooooo   XXXXXXX",
"XXXXXX   $$$$$$$$+++++++$$$$$$$$$$$$$$$$$$$ooooooooooo   XXXXXXX",
"XXXXXX   $$$$$$$$+++++++$$$$$$$$$$$$$$$$$$$ooooooooooo   XXXXXXX",
"XX    ooo$$$$$$$$$$$$$$$$$$$$$$$$$$$$$$$$$$ooooooooooo%%%    XXX",
"XX    ooo$$$$$$$$$$$$$$$$$$$$$$$$$$$$$$$$$$ooooooooooo%%%    XXX",
"XX    ooo$$$$$$$$$$$$$$$$$$$$$$$$$$$$$$$$$$ooooooooooo%%%    XXX",
"XX    ooo$$$$$$$$$$$$$$$$$$$$$$$$$$$$$$$$$$ooooooooooo%%%    XXX",
"XX    ooo$$$$$$$$$$$$$$$$$$$$$$$$$$$$$$$$$$ooooooooooo%%%    XXX",
"XX    ooo$$$$$$$$$$$$$$$$$$$$$$$$$$$$$$ooooooooooooooo%%%    XXX",
"XX    ooo$$$$$$$$$$$$$$$$$$$$$$$$$$$$$$ooooooooooooooo%%%    XXX",
"XX    ooo$$$$$$$$$$$$$$$$$$$$$$$$$$$$$$ooooooooooooooo%%%    XXX",
"XX    ooo$$$$$$$$$$$$$$$$$$$$$$$$$$$$$$ooooooooooooooo%%%    XXX",
"XX    ooo$$$$$$$$$$$$$$$$$$$$$$$$$$$$$$ooooooooooooooo%%%    XXX",
"XX    ooooooo$$$$$$$$$$$$$$$$$$$$$$ooooooooooooooooooo%%%    XXX",
"XX    ooooooo$$$$$$$$$$$$$$$$$$$$$$ooooooooooooooooooo%%%    XXX",
"XX    ooooooo$$$$$$$$$$$$$$$$$$$$$$ooooooooooooooooooo%%%    XXX",
"XX    ooooooo$$$$$$$$$$$$$$$$$$$$$$ooooooooooooooooooo%%%    XXX",
"XX    ooooooo$$$$$$$$$$$$$$$$$$$$$$ooooooooooooooooooo%%%    XXX",
"XX    %%%ooooooooooooooooooooooooooooooooooooooooo%%%%%%%    XXX",
"XX    %%%ooooooooooooooooooooooooooooooooooooooooo%%%%%%%    XXX",
"XX    %%%ooooooooooooooooooooooooooooooooooooooooo%%%%%%%    XXX",
"XX    %%%ooooooooooooooooooooooooooooooooooooooooo%%%%%%%    XXX",
"XXXXXX   %%%%%%%%oooooooooooooooooooooooooo%%%%%%%%%%%   XXXXXXX",
"XXXXXX   %%%%%%%%oooooooooooooooooooooooooo%%%%%%%%%%%   XXXXXXX",
"XXXXXX   %%%%%%%%oooooooooooooooooooooooooo%%%%%%%%%%%   XXXXXXX",
"XX@@@.   %%%%%%%%oooooooooooooooooooooooooo%%%%%%%%%%%   ..@@XXX",
"XX@@@.   %%%%%%%%oooooooooooooooooooooooooo%%%%%%%%%%%   ..@@XXX",
"XX@@@@@@@                                             @@@@@@@XXX",
"XX@@@@@@@                                             @@@@@@@XXX",
"XX@@@@@@@                                             @@@@@@@XXX",
"XXXXXXXXX                                             XXXXXXXXXX",
"XXXXXXXXX                                             XXXXXXXXXX"
};
