/* XPM */
static char *_b8636bc1aa940ce8ebce56a0e08b08fJmKEOMsHFmaVavp7[] = {
/* columns rows colors chars-per-pixel */
"64 64 8 1 ",
"  c gray34",
". c #78726B",
"X c #80623D",
"o c #B38C5B",
"O c #C49356",
"+ c gray74",
"@ c #CFAE87",
"# c #CFD8DC",
/* pixels */
"XXXXXXXXXXXXXXXXXXXXXXXXXXXXXXXXXXXXXXXXXXXXXXXXXXXXXXXXXXXXXXXX",
"XXXXXXXXXXXXXXXXXXXXXXXXXXXXXXXXXXXXXXXXXXXXXXXXXXXXXXXXXXXXXXXX",
"XXXXXXXXXXXXXXXXXXXXXXXXXXXXXXXXXXXXXXXXXXXXXXXXXXXXXXXXXXXXXXXX",
"XXXoooooooooooooOOOooooooooXXXoooooOOOOOOOOooo@@@@@oooooooooooXX",
"XXXoooooooooooooOOOooooooooXXXoooooOOOOOOOOooo@@@@@oooooooooooXX",
"XXXoo...@@@@@@oooooOOOOOoooXXXooooo@@@@@@@@@@@@@@@@@@@@@...oooXX",
"XXXoo...@@@@@@oooooOOOOOoooXXXooooo@@@@@@@@@@@@@@@@@@@@@...oooXX",
"XXXoo...@@@@@@oooooOOOOOoooXXXooooo@@@@@@@@@@@@@@@@@@@@@...oooXX",
"XXXooooooooooo@@@@@@@@oooooXXXooooooooooOOOOOOOOOOOoooooooooooXX",
"XXXooooooooooo@@@@@@@@oooooXXXooooooooooOOOOOOOOOOOoooooooooooXX",
"XXXooooooooooo@@@@@@@@oooooXXXooooooooooOOOOOOOOOOOoooooooooooXX",
"XXXXXXXXXXXXXXXXXXX####XXXXXXXXXXXXXXXXXXXX####XXXXXXXXXXXXXXXXX",
"XXXXXXXXXXXXXXXXXXX####XXXXXXXXXXXXXXXXXXXX####XXXXXXXXXXXXXXXXX",
"XXXoooooooooooOOooo####oooo@@@@@@@@oooooXXX####oooooooooooooooXX",
"XXXoooooooooooOOooo####oooo@@@@@@@@oooooXXX####oooooooooooooooXX",
"XXXoooooooooooOOooo####oooo@@@@@@@@oooooXXX####oooooooooooooooXX",
"XXXoo...OOOOOO@@@@@####@@@@oooooooooooooXXX####oOOOOOO@@...oooXX",
"XXXoo...OOOOOO@@@@@####@@@@oooooooooooooXXX####oOOOOOO@@...oooXX",
"XXXoo...OOOOOO@@@@@####@@@@oooooooooooooXXX####oOOOOOO@@...oooXX",
"XXXooOOOooooooooooo############################OooooooooooooooXX",
"XXXooOOOooooooooooo############################OooooooooooooooXX",
"XXXooOOOooooooooooo############################OooooooooooooooXX",
"XXXXXXXXXXXXXXXXXXX############################XXXXXXXXXXXXXXXXX",
"XXXXXXXXXXXXXXXXXXX####XXXXXXXXXXXXXXXXXXXX####XXXXXXXXXXXXXXXXX",
"XXXoooooooooooooooo####oooooooOOOOOOOOOOOOO####oooooooooooooooXX",
"XXXoooooooooooooooo####oooooooOOOOOOOOOOOOO####oooooooooooooooXX",
"XXXoooooooooooooooo####oooooooOOOOOOOOOOOOO####oooooooooooooooXX",
"XXXoo...oooOOOooooo####ooooOOOoo@@@@@@@@@@@####OOOOOOOOO...oooXX",
"XXXoo...oooOOOooooo####ooooOOOoo@@@@@@@@@@@####OOOOOOOOO...oooXX",
"XXXoo...oooOOOooooo####ooooOOOoo@@@@@@@@@@@####OOOOOOOOO...oooXX",
"XXXooOOOOOOoooooooo####oooooooOOOOOoooooooo####oooooooooooooooXX",
"XXXooOOOOOOoooooooo############################oooooooooooooooXX",
"XXXXXXXXXXXXXXXXXXX############################XXXXXXXXXXXXXXXXX",
"XXXXXXXXXXXXXXXXXXX############################XXXXXXXXXXXXXXXXX",
"XXXXXXXXXXXXXXXXXXX############################XXXXXXXXXXXXXXXXX",
"XXXoooooooo@@@@@ooo####oooooooooooooooooooo####oXXXoooooooooooXX",
"XXXoooooooo@@@@@ooo####oooooooooooooooooooo####oXXXoooooooooooXX",
"XXXoooooooo@@@@@ooo####oooooooooooooooooooo####oXXXoooooooooooXX",
"XXXoo...@@@oooooooo####@@@@@@@@@@@@@@@@@@@@####oXXXooooo...oooXX",
"XXXoo...@@@oooooooo####@@@@@@@@@@@@@@@@@@@@####oXXXooooo...oooXX",
"XXXoooooooooooooooo####oooooooooooooooooooo####oXXXoooooooooooXX",
"XXXoooooooooooooooo####oooooooooooooooooooo####oXXXoooooooooooXX",
"XXXoooooooooooooooo############################oXXXoooooooooooXX",
"XXXXXXXXXXXXXXXXXXX############################XXXXXXXXXXXXXXXXX",
"XXXXXXXXXXXXXXXXXXX############################XXXXXXXXXXXXXXXXX",
"XXXXXXXXXXXXXXXXXXX############################XXXXXXXXXXXXXXXXX",
"XXXooooooooooo     ++++                    ++++    OOOOOOOOoooXX",
"XXXoooooooo        ++++                    ++++    OOOOOOOOoooXX",
"XXXooooooo         ++++                    ++++      OOOOOOoooXX",
"XXXoo...oo         ++++                    ++++      @oo...oooXX",
"XXXoo...o          ++++                    ++++        o...oooXX",
"XXXooooo@          ++++                    ++++        @@@@oooXX",
"XXXooooo@          ++++                    ++++        @@@@oooXX",
"XXXooooo           ++++                    ++++          @@oooXX",
"XXXXXXXX           ++++                    ++++          XXXXXXX",
"XXXXXXXX           ++++++++++++++++++++++++++++          XXXXXXX",
"XXXXXXXX           ++++++++++++++++++++++++++++          XXXXXXX",
"XXXoo...@          ++++++++++++++++++++++++++++          ..oooXX",
"XXXoo...@          ++++++++++++++++++++++++++++          ..oooXX",
"XXXoooooo          ++++                    ++++          oooooXX",
"XXXoooooo          ++++                    ++++        oooooooXX",
"XXXoooooooo        ++++                    ++++       ooooooooXX",
"XXXXXXXXXXX        ++++                    ++++      XXXXXXXXXXX",
"XXXXXXXXXXXXXX     ++++                    ++++      XXXXXXXXXXX"
};
