/* XPM */
static char *b7b6178ce1f84f8f89a26ac3d49034573L8357paP8lUAnSi[] = {
/* columns rows colors chars-per-pixel */
"64 64 2 1 ",
"  c gray26",
". c #D26B20",
/* pixels */
"............................    ................................",
"............................    ................................",
"............................    ................................",
"............................    ................................",
"............................    ................................",
"............................    ................................",
"............................    ................................",
"............................    ................................",
"............................    ................................",
"............................    ................................",
"............................    ................................",
"............................    ................................",
"                                                                ",
"                                                                ",
"                                                                ",
"                                                                ",
"............    ................................    ............",
"............    ................................    ............",
"............    ................................    ............",
"............    ................................    ............",
"............    ................................    ............",
"............    ................................    ............",
"............    ................................    ............",
"............    ................................    ............",
"............    ................................    ............",
"............    ................................    ............",
"............    ................................    ............",
"............    ................................    ............",
"                                                                ",
"                                                                ",
"                                                                ",
"                                                                ",
"............................    ............................    ",
"............................    ............................    ",
"............................    ............................    ",
"............................    ............................    ",
"............................    ............................    ",
"............................    ............................    ",
"............................    ............................    ",
"............................    ............................    ",
"............................    ............................    ",
"............................    ............................    ",
"............................    ............................    ",
"............................    ............................    ",
"                                                                ",
"                                                                ",
"                                                                ",
"                                                                ",
"............    ................................    ............",
"............    ................................    ............",
"............    ................................    ............",
"............    ................................    ............",
"............    ................................    ............",
"............    ................................    ............",
"............    ................................    ............",
"............    ................................    ............",
"............    ................................    ............",
"............    ................................    ............",
"............    ................................    ............",
"............    ................................    ............",
"                                                                ",
"                                                                ",
"                                                                ",
"                                                                "
};
