/* XPM */
static char *_185b514bbf341f9f0ba2c8c951bc392StATmRcyFliMPYDK[] = {
/* columns rows colors chars-per-pixel */
"64 64 5 1 ",
"  c #78726B",
". c #80623D",
"X c #B38C5B",
"o c #C49356",
"O c #CFAE87",
/* pixels */
"................................................................",
"................................................................",
"................................................................",
"...XXXXXXXXXXXXXoooXXXXXXXX...XXXXXooooooooXXXOOOOOXXXXXXXXXXX..",
"...XXXXXXXXXXXXXoooXXXXXXXX...XXXXXooooooooXXXOOOOOXXXXXXXXXXX..",
"...XX   OOOOOOXXXXXoooooXXX...XXXXXOOOOOOOOOOOOOOOOOOOOO   XXX..",
"...XX   OOOOOOXXXXXoooooXXX...XXXXXOOOOOOOOOOOOOOOOOOOOO   XXX..",
"...XX   OOOOOOXXXXXoooooXXX...XXXXXOOOOOOOOOOOOOOOOOOOOO   XXX..",
"...XXXXXXXXXXXOOOOOOOOXXXXX...XXXXXXXXXXoooooooooooXXXXXXXXXXX..",
"...XXXXXXXXXXXOOOOOOOOXXXXX...XXXXXXXXXXoooooooooooXXXXXXXXXXX..",
"...XXXXXXXXXXXOOOOOOOOXXXXX...XXXXXXXXXXoooooooooooXXXXXXXXXXX..",
"................................................................",
"................................................................",
"...XXXXXXXXXXXooXXXXXXXXXXXOOOOOOOOXXXXX...XXXXXXXXXXXXXXXXXXX..",
"...XXXXXXXXXXXooXXXXXXXXXXXOOOOOOOOXXXXX...XXXXXXXXXXXXXXXXXXX..",
"...XXXXXXXXXXXooXXXXXXXXXXXOOOOOOOOXXXXX...XXXXXXXXXXXXXXXXXXX..",
"...XX   ooooooOOOOOOOOOOOOOXXXXXXXXXXXXX...XXXXXooooooOO   XXX..",
"...XX   ooooooOOOOOOOOOOOOOXXXXXXXXXXXXX...XXXXXooooooOO   XXX..",
"...XX   ooooooOOOOOOOOOOOOOXXXXXXXXXXXXX...XXXXXooooooOO   XXX..",
"...XXoooXXXXXXXXXXXXXXXXXXXXXXXXXXXXXXXX...oooooXXXXXXXXXXXXXX..",
"...XXoooXXXXXXXXXXXXXXXXXXXXXXXXXXXXXXXX...oooooXXXXXXXXXXXXXX..",
"...XXoooXXXXXXXXXXXXXXXXXXXXXXXXXXXXXXXX...oooooXXXXXXXXXXXXXX..",
"................................................................",
"................................................................",
"...XXXXXXXXXXXXXXXX...XXXXXXXXoooooooooooooXXXXXXXXXXXXXXXXXXX..",
"...XXXXXXXXXXXXXXXX...XXXXXXXXoooooooooooooXXXXXXXXXXXXXXXXXXX..",
"...XXXXXXXXXXXXXXXX...XXXXXXXXoooooooooooooXXXXXXXXXXXXXXXXXXX..",
"...XX   XXXoooXXXXX...XXXXXoooXXOOOOOOOOOOOooooooooooooo   XXX..",
"...XX   XXXoooXXXXX...XXXXXoooXXOOOOOOOOOOOooooooooooooo   XXX..",
"...XX   XXXoooXXXXX...XXXXXoooXXOOOOOOOOOOOooooooooooooo   XXX..",
"...XXooooooXXXXXXXX...XXXXXXXXoooooXXXXXXXXXXXXXXXXXXXXXXXXXXX..",
"...XXooooooXXXXXXXX...XXXXXXXXoooooXXXXXXXXXXXXXXXXXXXXXXXXXXX..",
"................................................................",
"................................................................",
"................................................................",
"...XXXXXXXXOOOOOXXXXXXXXXXXXXXXXXXXXXXXXXXXXXXXX...XXXXXXXXXXX..",
"...XXXXXXXXOOOOOXXXXXXXXXXXXXXXXXXXXXXXXXXXXXXXX...XXXXXXXXXXX..",
"...XXXXXXXXOOOOOXXXXXXXXXXXXXXXXXXXXXXXXXXXXXXXX...XXXXXXXXXXX..",
"...XX   OOOXXXXXXXXXXXOOOOOOOOOOOOOOOOOOOOOOOOXX...XXXXX   XXX..",
"...XX   OOOXXXXXXXXXXXOOOOOOOOOOOOOOOOOOOOOOOOXX...XXXXX   XXX..",
"...XXXXXXXXXXXXXXXXXXXXXXXXXXXXXXXXXXXXXXXXXXXXX...XXXXXXXXXXX..",
"...XXXXXXXXXXXXXXXXXXXXXXXXXXXXXXXXXXXXXXXXXXXXX...XXXXXXXXXXX..",
"...XXXXXXXXXXXXXXXXXXXXXXXXXXXXXXXXXXXXXXXXXXXXX...XXXXXXXXXXX..",
"................................................................",
"................................................................",
"................................................................",
"...XXXXXXXXXXXXXXXXXXXXXOOOOOOOOXXX...XXXXXXXXoooooooooooooXXX..",
"...XXXXXXXXXXXXXXXXXXXXXOOOOOOOOXXX...XXXXXXXXoooooooooooooXXX..",
"...XXXXXXXXXXXXXXXXXXXXXOOOOOOOOXXX...XXXXXXXXoooooooooooooXXX..",
"...XX   XXXXXXXXOOOOOOOOXXXXXXXXXXX...XXXXXOOOOOOOOOOOXX   XXX..",
"...XX   XXXXXXXXOOOOOOOOXXXXXXXXXXX...XXXXXOOOOOOOOOOOXX   XXX..",
"...XXXXXOOOOOOOOOOOOOOOOOOOOOOXXXXX...XXXXXXXXXXOOOOOOOOOOOXXX..",
"...XXXXXOOOOOOOOOOOOOOOOOOOOOOXXXXX...XXXXXXXXXXOOOOOOOOOOOXXX..",
"...XXXXXOOOOOOOOOOOOOOOOOOOOOOXXXXX...XXXXXXXXXXOOOOOOOOOOOXXX..",
"................................................................",
"................................................................",
"................................................................",
"...XX   OOOXXXXXXXX...XXXXXXXXXXoooXXXOOOOOOOOOOOOOOOOOO   XXX..",
"...XX   OOOXXXXXXXX...XXXXXXXXXXoooXXXOOOOOOOOOOOOOOOOOO   XXX..",
"...XXXXXXXXOOOOOXXX...XXXXXXXXooOOOOOOOOOOOOOOOOOOOXXXXXXXXXXX..",
"...XXXXXXXXOOOOOXXX...XXXXXXXXooOOOOOOOOOOOOOOOOOOOXXXXXXXXXXX..",
"...XXXXXXXXOOOOOXXX...XXXXXXXXooOOOOOOOOOOOOOOOOOOOXXXXXXXXXXX..",
"................................................................",
"................................................................"
};
