/* XPM */
static char *_649717705123[] = {
/* columns rows colors chars-per-pixel */
"26 32 162 2 ",
"   c #050404",
".  c #0C0E0D",
"X  c #12120F",
"o  c #0D0F10",
"O  c #141413",
"+  c #181715",
"@  c #1A1916",
"#  c #1C1B1A",
"$  c #20060D",
"%  c #201E1B",
"&  c #23211E",
"*  c #28261C",
"=  c #39221C",
"-  c #242423",
";  c #2A2623",
":  c #272827",
">  c #2C2A24",
",  c #2B2C2B",
"<  c #322C26",
"1  c #322D29",
"2  c #3C2F23",
"3  c #333224",
"4  c #34322C",
"5  c #3B342C",
"6  c #383E29",
"7  c #2C2E31",
"8  c #2F3030",
"9  c #343434",
"0  c #393733",
"q  c #3C3933",
"w  c #3C3B3B",
"e  c #463817",
"r  c #443C2D",
"t  c #493D2E",
"y  c #443D35",
"u  c #4C3F34",
"i  c #433E3B",
"p  c #483F3A",
"a  c #3F432A",
"s  c #524219",
"d  c #654D0F",
"f  c #7D5C13",
"g  c #43472F",
"h  c #444A2D",
"j  c #5B402F",
"k  c #4A4036",
"l  c #46423A",
"z  c #4C433A",
"x  c #51463C",
"c  c #564A3E",
"v  c #594D3B",
"b  c #584635",
"n  c #4B5034",
"m  c #675E3F",
"M  c #685F3F",
"N  c #605332",
"B  c #785D3D",
"V  c #5B633D",
"C  c #6C603A",
"Z  c #79693F",
"A  c #72633B",
"S  c #3F3F40",
"D  c #3F4040",
"F  c #434344",
"G  c #4A4642",
"H  c #494A4C",
"J  c #4A4A42",
"K  c #504943",
"L  c #5F5144",
"P  c #5F5A4D",
"I  c #4C4D51",
"U  c #525153",
"Y  c #54555A",
"T  c #57585B",
"R  c #595A5E",
"E  c #655443",
"W  c #635B43",
"Q  c #635549",
"!  c #6C5B4B",
"~  c #6A5942",
"^  c #715F4B",
"/  c #7B644F",
"(  c #67625E",
")  c #7F6A57",
"_  c #7E6B5B",
"`  c #756354",
"'  c #565A61",
"]  c #5F636B",
"[  c #696769",
"{  c #746D6C",
"}  c #676A71",
"|  c #6C6E75",
" . c #6A6F79",
".. c #767070",
"X. c #7F7A77",
"o. c #73757D",
"O. c #9D7918",
"+. c #A17C17",
"@. c #8C652D",
"#. c #907936",
"$. c #927E42",
"%. c #816A53",
"&. c #8A6F57",
"*. c #826E5D",
"=. c #87715E",
"-. c #8B745B",
";. c #AC7C4B",
":. c #8B7663",
">. c #927A64",
",. c #917C69",
"<. c #A97F68",
"1. c #9D846F",
"2. c #9D8166",
"3. c #9F8770",
"4. c #AC9061",
"5. c #A38A73",
"6. c #AE9279",
"7. c #B99770",
"8. c #B09379",
"9. c #C09E7A",
"0. c #D0BB68",
"q. c #D4B366",
"w. c #F6CF77",
"e. c #EBD27E",
"r. c #767983",
"t. c #7B7E87",
"y. c #7F838D",
"u. c #898482",
"i. c #8F8987",
"p. c #81848D",
"a. c #848994",
"s. c #888B95",
"d. c #9E9794",
"f. c #B39881",
"g. c #BB9E84",
"h. c #9699A5",
"j. c #9BA0AC",
"k. c #9CA2B0",
"l. c #B2AAA6",
"z. c #A1A6B4",
"x. c #A7ACBB",
"c. c #C8A88B",
"v. c #C3A588",
"b. c #CFAD92",
"n. c #D0AF91",
"m. c #D4B293",
"M. c #D9B799",
"N. c #DCBA9B",
"B. c #DAB592",
"V. c #E3BF9E",
"C. c #DFBDA0",
"Z. c #E6C29F",
"A. c #F5C690",
"S. c #FDCE9A",
"D. c #EBC5A2",
"F. c #F2CAA7",
"G. c #F6CEAA",
"H. c #FFDDB4",
"J. c #B5BBCB",
"K. c #B6BBCA",
"L. c #BCC2D2",
"P. c None",
/* pixels */
"P.P.P.P.P.P.P.P.P.@ # # - # P.P.P.P.P.P.P.P.P.P.P.P.",
"P.P.P.P.P.P.# - 8 9 w w S F S 9 # P.P.P.P.P.P.P.P.P.",
"P.P.P.P.+ & 0 S w w w w w w w F H 9 O P.P.P.P.P.P.P.",
"P.P.P.@ : , w w w w w w w w w 0 w U w O P.P.P.P.P.P.",
"P.P.O : , , w w w w w w w w w w w 0 T q . P.P.P.P.P.",
"P.P.- , , 7 w w S S S S w w w w w w w T - P.P.P.P.P.",
"P.# , , , 8 w D > - - , 0 S w w w w w Y H P.P.P.P.P.",
"P.- , , , 8 9 & I t.| I : - w S w S 8 , 4 O P.P.P.P.",
"P.- , , , - - y.J.J.J.L.z.} , > 0 - 9 | r.# P.P.P.P.",
"# : , , - - h.J.} F Y  .k.L.z.I : o.J.J.L.T P.P.P.P.",
"# , , , - r.x.F Q 6.:.Q i ' x.J.z.J.t.w } | P.P.P.P.",
"+ , , - S h.D ) f.5.V.N.f.^ 9 a.z.F K 6.L , P.P.P.P.",
"# : , - S y.z g.1 1 c 5.M.M.6.l S ,.M.,.5 X P.P.P.P.",
"O : , - 9 a.G :.< K 5 < x 1.:.,.` ,.u < 5 P.P.P.P.P.",
"P.- 7 : , a.G =.% * 2 1 3 ; # L ; % - 1 1 P.@ # P.P.",
"P.# , , - y.H 5.p / e.B $ r ; v.y t u e @ ; % P.P.P.",
"P.@ : 7 # o.Y *.V.b 0.w.;.N { H.<.B q.= O 1 5 P.P.P.",
"P.P.& , # R p.1 :.6.L m m *.F.Z.D.{ L :.@ - 4 & P.P.",
"P.P.P.- - , p.a.Y S *.b.b.F.c.m.N.G.*.G & 4 & % , P.",
"P.P.P.P.- - % H s.a.p D.D.V.<.! m.B.H y.O 4 y P.w P.",
"P.P.P.P.P.% - X o.h.H g.V.D.G.D.n.E } H P.P.5 q , y ",
"P.P.P.P.P.P.O % 9 T 1 < y u p r + . - P.P.P.P.q 5 w ",
"P.P.P.P.P.P.r 7.t % ; t r ; < % 4 P.P.P.P.A P.* l l ",
"P.P.P.P.P.. %.A.^ u / u F l.l.p 2 & P.P.P.$.W # P 0 ",
"P.P.P.P.P.& t ~ 5 x &.%.p d.i.L t 1 P.P.P.@.4.J l P.",
"P.P.P.P.P.> r g * 4 u b e ; @ r 4 ; s O.+.f 4.q P.P.",
"P.P.P.P.P.&.>.&.q U X.{ { [ { u.u.O e d P.  #.P.P.P.",
"P.P.P.P.P.v 9.S.Q a ......{ { ( l X P.P.P.P.e P.P.P.",
"P.P.P.P.P.o 4 ~ > a h a a h h h 3 # P.P.P.P.P.P.P.P.",
"P.P.P.P.P.P.P.. O > n V > h 3 & O P.P.P.P.P.P.P.P.P.",
"P.P.P.P.P.P.P.+ # + # O   O @ # # P.P.P.P.P.P.P.P.P.",
"P.P.P.P.P.P.P.P.O + + O P.P.O X P.P.P.P.P.P.P.P.P.P."
};
