/* XPM */
static char *bdc7cb46011f4f6de7e8b8a4c573a0d9hwhW5ZIMuNgjrF6A[] = {
/* columns rows colors chars-per-pixel */
"40 48 201 2 ",
"   c None",
".  c #010101",
"X  c #0D0D0D",
"o  c #060609",
"O  c #110E0C",
"+  c #12110F",
"@  c #0F1111",
"#  c #151413",
"$  c #181715",
"%  c #1A1916",
"&  c #1D1C1A",
"*  c #171818",
"=  c #0F0D11",
"-  c #211E1B",
";  c #231E17",
":  c #2F120D",
">  c #1F201E",
",  c #23221E",
"<  c #29251C",
"1  c #332B16",
"2  c #1F1D20",
"3  c #242422",
"4  c #292623",
"5  c #272826",
"6  c #2D2A24",
"7  c #252628",
"8  c #2B2C2C",
"9  c #27292A",
"0  c #322C24",
"q  c #392F24",
"w  c #332E2A",
"e  c #343324",
"r  c #3B3526",
"t  c #363927",
"y  c #35312C",
"u  c #3B352D",
"i  c #353929",
"p  c #2D3136",
"a  c #343434",
"s  c #3C3730",
"d  c #3C3935",
"f  c #373A3E",
"g  c #3B3B3B",
"h  c #373738",
"j  c #2D2E30",
"k  c #490E11",
"l  c #43390E",
"z  c #41352A",
"x  c #433B2D",
"c  c #4A3A2B",
"v  c #433B33",
"b  c #493E33",
"n  c #423E3E",
"m  c #3D4329",
"M  c #574517",
"N  c #735914",
"B  c #49462D",
"V  c #51492E",
"C  c #4B4136",
"Z  c #4C4339",
"A  c #484839",
"S  c #514539",
"D  c #55493D",
"F  c #5C4E3E",
"G  c #534334",
"H  c #4E5434",
"J  c #585938",
"K  c #654A37",
"L  c #665B3C",
"P  c #796329",
"I  c #3F3F40",
"U  c #434343",
"Y  c #4C4B4B",
"T  c #4A4846",
"R  c #524C41",
"E  c #5A4E42",
"W  c #514D4B",
"Q  c #534640",
"!  c #5E5246",
"~  c #4E5054",
"^  c #4F5258",
"/  c #545252",
"(  c #5D5A53",
")  c #5A5B5D",
"_  c #525459",
"`  c #4E4F52",
"'  c #645444",
"]  c #6E5A46",
"[  c #655A4C",
"{  c #6B5B4D",
"}  c #665748",
"|  c #735E4B",
" . c #6A5F57",
".. c #796648",
"X. c #6D7748",
"o. c #717B4A",
"O. c #666159",
"+. c #746353",
"@. c #786656",
"#. c #7C6A5B",
"$. c #736D50",
"%. c #5B5C62",
"&. c #595D65",
"*. c #5F6065",
"=. c #5E6168",
"-. c #656466",
";. c #736D67",
":. c #6A6D73",
">. c #6B6F78",
",. c #6D7077",
"<. c #6E7179",
"1. c #787677",
"2. c #967515",
"3. c #8E5A3A",
"4. c #AD6D27",
"5. c #816E5D",
"6. c #866C53",
"7. c #89715A",
"8. c #907C50",
"9. c #8C7662",
"0. c #927C68",
"q. c #827D7A",
"w. c #A97E73",
"e. c #78834E",
"r. c #B88D19",
"t. c #B4973D",
"y. c #E6B81A",
"u. c #8E814B",
"i. c #9C846E",
"p. c #9C8264",
"a. c #9C8571",
"s. c #A88B6B",
"d. c #A28A74",
"f. c #A98F78",
"g. c #AE937C",
"h. c #AA9077",
"j. c #B7987A",
"k. c #BBA661",
"l. c #CD9950",
"z. c #C2A85A",
"x. c #C39F77",
"c. c #D6B86D",
"v. c #C4A17A",
"b. c #D2AB7D",
"n. c #CAB066",
"m. c #E8C976",
"M. c #F7D079",
"N. c #757983",
"B. c #7E818A",
"V. c #81848E",
"C. c #8D8784",
"Z. c #868993",
"A. c #8B8E99",
"S. c #8A8D96",
"D. c #8D919C",
"F. c #91949E",
"G. c #918A86",
"H. c #B49981",
"J. c #BA9E86",
"K. c #B29780",
"L. c #A59E9A",
"P. c #BEA187",
"I. c #AAA19D",
"U. c #969AA5",
"Y. c #989BA6",
"T. c #9A9DA9",
"R. c #9296A1",
"E. c #9DA1AE",
"W. c #9FA3B0",
"Q. c #B3ABA6",
"!. c #BAB2AD",
"~. c #AAAFBD",
"^. c #A4A9B6",
"/. c #ACB1BF",
"(. c #BFB6B2",
"). c #D89D83",
"_. c #C3A58B",
"`. c #CBAB8E",
"'. c #C2A387",
"]. c #CDAE93",
"[. c #D1AF90",
"{. c #D2B193",
"}. c #DAB798",
"|. c #E4BA89",
" X c #E2BE9C",
".X c #C4BAB6",
"XX c #E6C19E",
"oX c #F4C693",
"OX c #FFE786",
"+X c #EBC5A2",
"@X c #EFC8A5",
"#X c #F5CEA9",
"$X c #F1CAA7",
"%X c #F9D1AB",
"&X c #FFD9B2",
"*X c #ADB2C1",
"=X c #AFB4C3",
"-X c #B1B6C5",
";X c #B0B5C3",
":X c #B8BECD",
">X c #CECBD1",
/* pixels */
"                                                                                ",
"                      $ % & 3 8 8 a a h a 9 & $                                 ",
"                  $ 3 8 h g g g g g n A U T Y T a $                             ",
"                & 8 g g g g g g g f h f g h g U / ` 8 #                         ",
"              3 9 h g g g g g g g g g g g g g h h U &.m %                       ",
"            3 8 8 h g g g g g g g g g g g g g g g f I ) T &                     ",
"          3 8 8 w g g g g g g g g g g g g g g g g g g g %.U %                   ",
"        3 8 8 9 8 g g g g g g g g g g g g g g g g g g h U -.a #                 ",
"      3 8 8 9 9 j g g g g g g g g g g g g g g g g g g g g / ) 3                 ",
"    * 9 8 8 8 8 j g g g I g j a g I I g g g g g g g g g g g *.g #               ",
"    , 8 8 8 8 9 j I g g 3 $ 9 3 & $ 3 a I g g g g g g h g g ) ) &               ",
"  * 3 8 9 8 8 8 8 m a + g V.^.W.A.>.U & % a n g g g g n g 4 3 , -               ",
"  & 9 8 8 8 8 8 j 7 & >.~.=X=X*X*X*X*XU.=.3 $ a U g f 2 $ h -.>.&               ",
"  & 8 8 8 8 8 j & 2 A.-X-X^.A.T.~.-X*X~.=XW.%.# 5 9 # U Z.*X=X:X<.X             ",
"  , 8 9 9 8 8 > 2 R.=X=XN.8 , 7 j ^ V.~.=X~.-XA.8 4 B.=X=X=X=X*X^.8             ",
"  3 8 8 8 8 3 & 1.^.=X&.% +.g.d.5.S , 8 <.~.*X*XW.W.-X-XW.>.I :.=Xw             ",
"  3 8 8 8 8 $ %.R.U.^ - f.]._.P.J._.H.@.- j Z.-X^.*X*X>.2 q E % V.8             ",
"  3 8 8 8 8 $ <.U._ ; K._.#.i.}. X_.H.P.J.{ # %.-X^.I ; 5.J.}.+.3 4             ",
"  , 8 8 8 8 $ :.U.8 +.{.[ # - w 5.}.@X].K._.d.- f 7 v K.}.}.0.n %               ",
"  & 8 8 8 8 # -.T.p { _.3 v E s % - +.[.+X_.].J.S @.].{.d.v % < %               ",
"  & 9 9 8 8 $ %.T.f ' K., x b Z E Z 2 - +.d.b #.g.R @.Z # y Q Z %               ",
"  & 5 8 8 j % ` E.Y b K.& s 3 $ % w b b , - $ b } @ - w b s 4 u %     + &       ",
"    3 8 8 8 % g T.%.w _.r @ x 8.L q & 7 w b 2 @.9.$ x - % ; 6 - % o u # &       ",
"    & 9 8 8 3 8 R.<.4 H.g.6 ..OXm.n.: : q - - ].}.3 < ] K k c = , a &           ",
"    $ 3 8 8 9 & V.Z., a.].j.$ c.OXM.3.3.n.& 0.#X#X9.q OXM.K O % . s s           ",
"    . , 8 8 8 $ :.U.3 { _.%X5.$ u.c.m.k.0 E @XXX+X Xw V 8.e u ;   a v w         ",
"    . % 7 8 j % ~ T.*.& u 9. Xg.A 6 6 6 5.+XXX X X+X}.} S J.d.o   A , , w       ",
"      . & 3 j > 8 A.Y.V.^ 9 , D '.XX[.XX#XXX$X#X$X+XXX%Xi.' 0 - % 3 y   y 3     ",
"        . % 3 8 & 9 *.S.T.D.B.p C #X+X+XXX`.] 9.i.`.@XP.# =._ * v R w     Y     ",
"          . . 3 9 3 # , %.D.T.-.B +XXX}.XXXXh.} @.[.&X9.p >X^ o   3 R 5   R     ",
"            . . & 3 j * h R.F.=.u +X@X@X@X@X%X&X&X#X{.w N.V.X       6 ( , % (   ",
"              . . . & $ a A.Y.<.& +.0.f.J._.'.g.9.D & & -.,         O C A + W   ",
"                    + ; $ 9 g h - % # # % - % $ = O $ % X             6 u 6 R   ",
"                    D x...$ 0 O 4 K ] G ; $ q x $ v %           x <   & y 0 (   ",
"                  0 s.b.x.- E F x 4 < w -.a.-.; y b 4           t.z.#   d 8 ;.  ",
"                  E x.|.b.- D ] 6.6.< 1.L.>X.X-.z - 0           . z.#.. A R !   ",
"                - - q ] ] - S ' 6.6.w W 1.(.q.T F e V #         o l.d.6 [  .-   ",
"                6 L L B r - F | 7.6.| < ;.G.Y z s.- 0 v o X ; N 2.4.b.( D ,     ",
"                6 - q V B % 0 q G c F z O o o q < % e 2 M y.r.r.2.l n.} o       ",
"              $ p.s.| D S ; U / W U v n R W ( O.C.L.% & M N 1 o   . P ..        ",
"              $ p.x.j.|.j., 1.Q.(.!.!.!.Q.I.I.I.I.;.# + o         1 t.r         ",
"                z h.x.oXv.$ w v T Y Y W / / W g 8 < %                           ",
"                    ' p.A , i t t 6 i i e e m H B H &                           ",
"                      @ + , A o.o.e.o.B X.X.H J > * & &                         ",
"                        & @ % , i J < = , i = # % %                             ",
"                        % # % & * $       $ & 3 > &                             ",
"                        & & & & & &       % $ % * $                             ",
"                                                                                "
};
